<mxfile host="app.diagrams.net" agent="Mozilla/5.0 (Macintosh; Intel Mac OS X 10_15_7) AppleWebKit/537.36 (KHTML, like Gecko) Chrome/130.0.0.0 Safari/537.36" version="24.8.3" pages="8">
  <diagram id="KHU8kLmjBiC1GIT404rp" name="01 - db">
    <mxGraphModel dx="869" dy="801" grid="1" gridSize="10" guides="1" tooltips="1" connect="1" arrows="1" fold="1" page="1" pageScale="1" pageWidth="1920" pageHeight="1200" math="0" shadow="0">
      <root>
        <mxCell id="0" />
        <mxCell id="1" parent="0" />
        <mxCell id="KMlsRSCv6nKyGhSPdQPw-1" value="Database" style="rounded=0;whiteSpace=wrap;html=1;fillColor=#d5e8d4;strokeColor=#82b366;fontStyle=1;fontSize=18;" parent="1" vertex="1">
          <mxGeometry x="330" y="300" width="850" height="30" as="geometry" />
        </mxCell>
        <mxCell id="KMlsRSCv6nKyGhSPdQPw-2" value="" style="rounded=0;whiteSpace=wrap;html=1;fontSize=18;fillColor=#d5e8d4;strokeColor=#82b366;" parent="1" vertex="1">
          <mxGeometry x="330" y="330" width="850" height="250" as="geometry" />
        </mxCell>
        <mxCell id="KMlsRSCv6nKyGhSPdQPw-3" value="users" style="rounded=0;whiteSpace=wrap;html=1;fontSize=16;fillColor=#ffe6cc;strokeColor=#d79b00;fontStyle=1" parent="1" vertex="1">
          <mxGeometry x="340" y="350" width="210" height="26" as="geometry" />
        </mxCell>
        <mxCell id="KMlsRSCv6nKyGhSPdQPw-4" value="orders" style="rounded=0;whiteSpace=wrap;html=1;fontSize=16;fillColor=#ffe6cc;strokeColor=#d79b00;fontStyle=1" parent="1" vertex="1">
          <mxGeometry x="570" y="350" width="210" height="26" as="geometry" />
        </mxCell>
        <mxCell id="KMlsRSCv6nKyGhSPdQPw-5" value="products" style="rounded=0;whiteSpace=wrap;html=1;fontSize=16;fillColor=#ffe6cc;strokeColor=#d79b00;fontStyle=1" parent="1" vertex="1">
          <mxGeometry x="800" y="351" width="370" height="26" as="geometry" />
        </mxCell>
        <mxCell id="KMlsRSCv6nKyGhSPdQPw-6" value="id" style="rounded=0;whiteSpace=wrap;html=1;fontSize=12;fillColor=#f5f5f5;strokeColor=#666666;fontColor=#333333;fontStyle=2" parent="1" vertex="1">
          <mxGeometry x="340" y="376" width="50" height="24" as="geometry" />
        </mxCell>
        <mxCell id="KMlsRSCv6nKyGhSPdQPw-7" value="first_name" style="rounded=0;whiteSpace=wrap;html=1;fontSize=12;fillColor=#f5f5f5;strokeColor=#666666;fontColor=#333333;fontStyle=2" parent="1" vertex="1">
          <mxGeometry x="390" y="376" width="80" height="24" as="geometry" />
        </mxCell>
        <mxCell id="KMlsRSCv6nKyGhSPdQPw-8" value="last_name" style="rounded=0;whiteSpace=wrap;html=1;fontSize=12;fillColor=#f5f5f5;strokeColor=#666666;fontColor=#333333;fontStyle=2" parent="1" vertex="1">
          <mxGeometry x="470" y="376" width="80" height="24" as="geometry" />
        </mxCell>
        <mxCell id="KMlsRSCv6nKyGhSPdQPw-9" value="id" style="rounded=0;whiteSpace=wrap;html=1;fontSize=12;fillColor=#f5f5f5;strokeColor=#666666;fontColor=#333333;fontStyle=2" parent="1" vertex="1">
          <mxGeometry x="570" y="376" width="50" height="24" as="geometry" />
        </mxCell>
        <mxCell id="KMlsRSCv6nKyGhSPdQPw-10" value="1" style="rounded=0;whiteSpace=wrap;html=1;fontSize=11;" parent="1" vertex="1">
          <mxGeometry x="340" y="400" width="50" height="24" as="geometry" />
        </mxCell>
        <mxCell id="KMlsRSCv6nKyGhSPdQPw-11" value="Iva" style="rounded=0;whiteSpace=wrap;html=1;fontSize=11;" parent="1" vertex="1">
          <mxGeometry x="390" y="400" width="80" height="24" as="geometry" />
        </mxCell>
        <mxCell id="KMlsRSCv6nKyGhSPdQPw-12" value="Lindgren" style="rounded=0;whiteSpace=wrap;html=1;fontSize=11;" parent="1" vertex="1">
          <mxGeometry x="470" y="400" width="80" height="24" as="geometry" />
        </mxCell>
        <mxCell id="KMlsRSCv6nKyGhSPdQPw-13" value="2" style="rounded=0;whiteSpace=wrap;html=1;fontSize=11;" parent="1" vertex="1">
          <mxGeometry x="340" y="424" width="50" height="24" as="geometry" />
        </mxCell>
        <mxCell id="KMlsRSCv6nKyGhSPdQPw-14" value="Ignatius" style="rounded=0;whiteSpace=wrap;html=1;fontSize=11;" parent="1" vertex="1">
          <mxGeometry x="390" y="424" width="80" height="24" as="geometry" />
        </mxCell>
        <mxCell id="KMlsRSCv6nKyGhSPdQPw-15" value="Johns" style="rounded=0;whiteSpace=wrap;html=1;fontSize=11;" parent="1" vertex="1">
          <mxGeometry x="470" y="424" width="80" height="24" as="geometry" />
        </mxCell>
        <mxCell id="KMlsRSCv6nKyGhSPdQPw-16" value="3" style="rounded=0;whiteSpace=wrap;html=1;fontSize=11;" parent="1" vertex="1">
          <mxGeometry x="340" y="448" width="50" height="24" as="geometry" />
        </mxCell>
        <mxCell id="KMlsRSCv6nKyGhSPdQPw-17" value="Jannie" style="rounded=0;whiteSpace=wrap;html=1;fontSize=11;" parent="1" vertex="1">
          <mxGeometry x="390" y="448" width="80" height="24" as="geometry" />
        </mxCell>
        <mxCell id="KMlsRSCv6nKyGhSPdQPw-18" value="Boehm" style="rounded=0;whiteSpace=wrap;html=1;fontSize=11;" parent="1" vertex="1">
          <mxGeometry x="470" y="448" width="80" height="24" as="geometry" />
        </mxCell>
        <mxCell id="KMlsRSCv6nKyGhSPdQPw-19" value="4" style="rounded=0;whiteSpace=wrap;html=1;fontSize=11;" parent="1" vertex="1">
          <mxGeometry x="340" y="472" width="50" height="24" as="geometry" />
        </mxCell>
        <mxCell id="KMlsRSCv6nKyGhSPdQPw-20" value="Neal" style="rounded=0;whiteSpace=wrap;html=1;fontSize=11;" parent="1" vertex="1">
          <mxGeometry x="390" y="472" width="80" height="24" as="geometry" />
        </mxCell>
        <mxCell id="KMlsRSCv6nKyGhSPdQPw-21" value="Wehner" style="rounded=0;whiteSpace=wrap;html=1;fontSize=11;" parent="1" vertex="1">
          <mxGeometry x="470" y="472" width="80" height="24" as="geometry" />
        </mxCell>
        <mxCell id="KMlsRSCv6nKyGhSPdQPw-22" value="5" style="rounded=0;whiteSpace=wrap;html=1;fontSize=11;" parent="1" vertex="1">
          <mxGeometry x="340" y="496" width="50" height="24" as="geometry" />
        </mxCell>
        <mxCell id="KMlsRSCv6nKyGhSPdQPw-23" value="Mikayla" style="rounded=0;whiteSpace=wrap;html=1;fontSize=11;" parent="1" vertex="1">
          <mxGeometry x="390" y="496" width="80" height="24" as="geometry" />
        </mxCell>
        <mxCell id="KMlsRSCv6nKyGhSPdQPw-24" value="Casper" style="rounded=0;whiteSpace=wrap;html=1;fontSize=11;" parent="1" vertex="1">
          <mxGeometry x="470" y="496" width="80" height="24" as="geometry" />
        </mxCell>
        <mxCell id="KMlsRSCv6nKyGhSPdQPw-25" value="1" style="rounded=0;whiteSpace=wrap;html=1;fontSize=11;" parent="1" vertex="1">
          <mxGeometry x="570" y="400" width="50" height="24" as="geometry" />
        </mxCell>
        <mxCell id="KMlsRSCv6nKyGhSPdQPw-26" value="2" style="rounded=0;whiteSpace=wrap;html=1;fontSize=11;" parent="1" vertex="1">
          <mxGeometry x="570" y="424" width="50" height="24" as="geometry" />
        </mxCell>
        <mxCell id="KMlsRSCv6nKyGhSPdQPw-27" value="3" style="rounded=0;whiteSpace=wrap;html=1;fontSize=11;" parent="1" vertex="1">
          <mxGeometry x="570" y="448" width="50" height="24" as="geometry" />
        </mxCell>
        <mxCell id="KMlsRSCv6nKyGhSPdQPw-28" value="4" style="rounded=0;whiteSpace=wrap;html=1;fontSize=11;" parent="1" vertex="1">
          <mxGeometry x="570" y="472" width="50" height="24" as="geometry" />
        </mxCell>
        <mxCell id="KMlsRSCv6nKyGhSPdQPw-29" value="5" style="rounded=0;whiteSpace=wrap;html=1;fontSize=11;" parent="1" vertex="1">
          <mxGeometry x="570" y="496" width="50" height="24" as="geometry" />
        </mxCell>
        <mxCell id="KMlsRSCv6nKyGhSPdQPw-30" value="user_id" style="rounded=0;whiteSpace=wrap;html=1;fontSize=12;fillColor=#f5f5f5;strokeColor=#666666;fontColor=#333333;fontStyle=2" parent="1" vertex="1">
          <mxGeometry x="620" y="376" width="50" height="24" as="geometry" />
        </mxCell>
        <mxCell id="KMlsRSCv6nKyGhSPdQPw-31" value="5" style="rounded=0;whiteSpace=wrap;html=1;fontSize=11;" parent="1" vertex="1">
          <mxGeometry x="620" y="400" width="50" height="24" as="geometry" />
        </mxCell>
        <mxCell id="KMlsRSCv6nKyGhSPdQPw-32" value="3" style="rounded=0;whiteSpace=wrap;html=1;fontSize=11;" parent="1" vertex="1">
          <mxGeometry x="620" y="424" width="50" height="24" as="geometry" />
        </mxCell>
        <mxCell id="KMlsRSCv6nKyGhSPdQPw-33" value="4" style="rounded=0;whiteSpace=wrap;html=1;fontSize=11;" parent="1" vertex="1">
          <mxGeometry x="620" y="448" width="50" height="24" as="geometry" />
        </mxCell>
        <mxCell id="KMlsRSCv6nKyGhSPdQPw-34" value="5" style="rounded=0;whiteSpace=wrap;html=1;fontSize=11;" parent="1" vertex="1">
          <mxGeometry x="620" y="472" width="50" height="24" as="geometry" />
        </mxCell>
        <mxCell id="KMlsRSCv6nKyGhSPdQPw-35" value="1" style="rounded=0;whiteSpace=wrap;html=1;fontSize=11;" parent="1" vertex="1">
          <mxGeometry x="620" y="496" width="50" height="24" as="geometry" />
        </mxCell>
        <mxCell id="KMlsRSCv6nKyGhSPdQPw-36" value="product_id" style="rounded=0;whiteSpace=wrap;html=1;fontSize=12;fillColor=#f5f5f5;strokeColor=#666666;fontColor=#333333;fontStyle=2" parent="1" vertex="1">
          <mxGeometry x="670" y="376" width="62" height="24" as="geometry" />
        </mxCell>
        <mxCell id="KMlsRSCv6nKyGhSPdQPw-37" value="4" style="rounded=0;whiteSpace=wrap;html=1;fontSize=11;" parent="1" vertex="1">
          <mxGeometry x="670" y="400" width="62" height="24" as="geometry" />
        </mxCell>
        <mxCell id="KMlsRSCv6nKyGhSPdQPw-38" value="2" style="rounded=0;whiteSpace=wrap;html=1;fontSize=11;" parent="1" vertex="1">
          <mxGeometry x="670" y="424" width="62" height="24" as="geometry" />
        </mxCell>
        <mxCell id="KMlsRSCv6nKyGhSPdQPw-39" value="6" style="rounded=0;whiteSpace=wrap;html=1;fontSize=11;" parent="1" vertex="1">
          <mxGeometry x="670" y="448" width="62" height="24" as="geometry" />
        </mxCell>
        <mxCell id="KMlsRSCv6nKyGhSPdQPw-40" value="3" style="rounded=0;whiteSpace=wrap;html=1;fontSize=11;" parent="1" vertex="1">
          <mxGeometry x="670" y="472" width="62" height="24" as="geometry" />
        </mxCell>
        <mxCell id="KMlsRSCv6nKyGhSPdQPw-41" value="1" style="rounded=0;whiteSpace=wrap;html=1;fontSize=11;" parent="1" vertex="1">
          <mxGeometry x="670" y="496" width="62" height="24" as="geometry" />
        </mxCell>
        <mxCell id="KMlsRSCv6nKyGhSPdQPw-42" value="paid" style="rounded=0;whiteSpace=wrap;html=1;fontSize=12;fillColor=#f5f5f5;strokeColor=#666666;fontColor=#333333;fontStyle=2" parent="1" vertex="1">
          <mxGeometry x="732" y="376" width="48" height="24" as="geometry" />
        </mxCell>
        <mxCell id="KMlsRSCv6nKyGhSPdQPw-43" value="true" style="rounded=0;whiteSpace=wrap;html=1;fontSize=11;" parent="1" vertex="1">
          <mxGeometry x="732" y="400" width="48" height="24" as="geometry" />
        </mxCell>
        <mxCell id="KMlsRSCv6nKyGhSPdQPw-44" value="true" style="rounded=0;whiteSpace=wrap;html=1;fontSize=11;" parent="1" vertex="1">
          <mxGeometry x="732" y="424" width="48" height="24" as="geometry" />
        </mxCell>
        <mxCell id="KMlsRSCv6nKyGhSPdQPw-45" value="false" style="rounded=0;whiteSpace=wrap;html=1;fontSize=11;" parent="1" vertex="1">
          <mxGeometry x="732" y="448" width="48" height="24" as="geometry" />
        </mxCell>
        <mxCell id="KMlsRSCv6nKyGhSPdQPw-46" value="true" style="rounded=0;whiteSpace=wrap;html=1;fontSize=11;" parent="1" vertex="1">
          <mxGeometry x="732" y="472" width="48" height="24" as="geometry" />
        </mxCell>
        <mxCell id="KMlsRSCv6nKyGhSPdQPw-47" value="false" style="rounded=0;whiteSpace=wrap;html=1;fontSize=11;" parent="1" vertex="1">
          <mxGeometry x="732" y="496" width="48" height="24" as="geometry" />
        </mxCell>
        <mxCell id="KMlsRSCv6nKyGhSPdQPw-48" value="id" style="rounded=0;whiteSpace=wrap;html=1;fontSize=12;fillColor=#f5f5f5;strokeColor=#666666;fontColor=#333333;fontStyle=2" parent="1" vertex="1">
          <mxGeometry x="800" y="377" width="50" height="24" as="geometry" />
        </mxCell>
        <mxCell id="KMlsRSCv6nKyGhSPdQPw-49" value="name" style="rounded=0;whiteSpace=wrap;html=1;fontSize=12;fillColor=#f5f5f5;strokeColor=#666666;fontColor=#333333;fontStyle=2" parent="1" vertex="1">
          <mxGeometry x="850" y="377" width="80" height="24" as="geometry" />
        </mxCell>
        <mxCell id="KMlsRSCv6nKyGhSPdQPw-50" value="department" style="rounded=0;whiteSpace=wrap;html=1;fontSize=12;fillColor=#f5f5f5;strokeColor=#666666;fontColor=#333333;fontStyle=2" parent="1" vertex="1">
          <mxGeometry x="930" y="377" width="80" height="24" as="geometry" />
        </mxCell>
        <mxCell id="KMlsRSCv6nKyGhSPdQPw-51" value="1" style="rounded=0;whiteSpace=wrap;html=1;fontSize=11;" parent="1" vertex="1">
          <mxGeometry x="800" y="401" width="50" height="24" as="geometry" />
        </mxCell>
        <mxCell id="KMlsRSCv6nKyGhSPdQPw-52" value="Shirt" style="rounded=0;whiteSpace=wrap;html=1;fontSize=11;" parent="1" vertex="1">
          <mxGeometry x="850" y="401" width="80" height="24" as="geometry" />
        </mxCell>
        <mxCell id="KMlsRSCv6nKyGhSPdQPw-53" value="Toys" style="rounded=0;whiteSpace=wrap;html=1;fontSize=11;" parent="1" vertex="1">
          <mxGeometry x="930" y="401" width="80" height="24" as="geometry" />
        </mxCell>
        <mxCell id="KMlsRSCv6nKyGhSPdQPw-54" value="2" style="rounded=0;whiteSpace=wrap;html=1;fontSize=11;" parent="1" vertex="1">
          <mxGeometry x="800" y="425" width="50" height="24" as="geometry" />
        </mxCell>
        <mxCell id="KMlsRSCv6nKyGhSPdQPw-55" value="Towels" style="rounded=0;whiteSpace=wrap;html=1;fontSize=11;" parent="1" vertex="1">
          <mxGeometry x="850" y="425" width="80" height="24" as="geometry" />
        </mxCell>
        <mxCell id="KMlsRSCv6nKyGhSPdQPw-56" value="Outdoors" style="rounded=0;whiteSpace=wrap;html=1;fontSize=11;" parent="1" vertex="1">
          <mxGeometry x="930" y="425" width="80" height="24" as="geometry" />
        </mxCell>
        <mxCell id="KMlsRSCv6nKyGhSPdQPw-57" value="3" style="rounded=0;whiteSpace=wrap;html=1;fontSize=11;" parent="1" vertex="1">
          <mxGeometry x="800" y="449" width="50" height="24" as="geometry" />
        </mxCell>
        <mxCell id="KMlsRSCv6nKyGhSPdQPw-58" value="Bacon" style="rounded=0;whiteSpace=wrap;html=1;fontSize=11;" parent="1" vertex="1">
          <mxGeometry x="850" y="449" width="80" height="24" as="geometry" />
        </mxCell>
        <mxCell id="KMlsRSCv6nKyGhSPdQPw-59" value="Movies" style="rounded=0;whiteSpace=wrap;html=1;fontSize=11;" parent="1" vertex="1">
          <mxGeometry x="930" y="449" width="80" height="24" as="geometry" />
        </mxCell>
        <mxCell id="KMlsRSCv6nKyGhSPdQPw-60" value="4" style="rounded=0;whiteSpace=wrap;html=1;fontSize=11;" parent="1" vertex="1">
          <mxGeometry x="800" y="473" width="50" height="24" as="geometry" />
        </mxCell>
        <mxCell id="KMlsRSCv6nKyGhSPdQPw-61" value="Ball" style="rounded=0;whiteSpace=wrap;html=1;fontSize=11;" parent="1" vertex="1">
          <mxGeometry x="850" y="473" width="80" height="24" as="geometry" />
        </mxCell>
        <mxCell id="KMlsRSCv6nKyGhSPdQPw-62" value="Industrial" style="rounded=0;whiteSpace=wrap;html=1;fontSize=11;" parent="1" vertex="1">
          <mxGeometry x="930" y="473" width="80" height="24" as="geometry" />
        </mxCell>
        <mxCell id="KMlsRSCv6nKyGhSPdQPw-63" value="5" style="rounded=0;whiteSpace=wrap;html=1;fontSize=11;" parent="1" vertex="1">
          <mxGeometry x="800" y="497" width="50" height="24" as="geometry" />
        </mxCell>
        <mxCell id="KMlsRSCv6nKyGhSPdQPw-64" value="Fish" style="rounded=0;whiteSpace=wrap;html=1;fontSize=11;" parent="1" vertex="1">
          <mxGeometry x="850" y="497" width="80" height="24" as="geometry" />
        </mxCell>
        <mxCell id="KMlsRSCv6nKyGhSPdQPw-65" value="Tools" style="rounded=0;whiteSpace=wrap;html=1;fontSize=11;" parent="1" vertex="1">
          <mxGeometry x="930" y="497" width="80" height="24" as="geometry" />
        </mxCell>
        <mxCell id="KMlsRSCv6nKyGhSPdQPw-66" value="price" style="rounded=0;whiteSpace=wrap;html=1;fontSize=12;fillColor=#f5f5f5;strokeColor=#666666;fontColor=#333333;fontStyle=2" parent="1" vertex="1">
          <mxGeometry x="1010" y="377" width="80" height="24" as="geometry" />
        </mxCell>
        <mxCell id="KMlsRSCv6nKyGhSPdQPw-67" value="weight" style="rounded=0;whiteSpace=wrap;html=1;fontSize=12;fillColor=#f5f5f5;strokeColor=#666666;fontColor=#333333;fontStyle=2" parent="1" vertex="1">
          <mxGeometry x="1090" y="377" width="80" height="24" as="geometry" />
        </mxCell>
        <mxCell id="KMlsRSCv6nKyGhSPdQPw-68" value="7" style="rounded=0;whiteSpace=wrap;html=1;fontSize=11;" parent="1" vertex="1">
          <mxGeometry x="800" y="545" width="50" height="24" as="geometry" />
        </mxCell>
        <mxCell id="KMlsRSCv6nKyGhSPdQPw-69" value="Computer" style="rounded=0;whiteSpace=wrap;html=1;fontSize=11;" parent="1" vertex="1">
          <mxGeometry x="850" y="545" width="80" height="24" as="geometry" />
        </mxCell>
        <mxCell id="KMlsRSCv6nKyGhSPdQPw-70" value="Home" style="rounded=0;whiteSpace=wrap;html=1;fontSize=11;" parent="1" vertex="1">
          <mxGeometry x="930" y="545" width="80" height="24" as="geometry" />
        </mxCell>
        <mxCell id="KMlsRSCv6nKyGhSPdQPw-71" value="6" style="rounded=0;whiteSpace=wrap;html=1;fontSize=11;" parent="1" vertex="1">
          <mxGeometry x="800" y="521" width="50" height="24" as="geometry" />
        </mxCell>
        <mxCell id="KMlsRSCv6nKyGhSPdQPw-72" value="Mouse" style="rounded=0;whiteSpace=wrap;html=1;fontSize=11;" parent="1" vertex="1">
          <mxGeometry x="850" y="521" width="80" height="24" as="geometry" />
        </mxCell>
        <mxCell id="KMlsRSCv6nKyGhSPdQPw-73" value="Grocery" style="rounded=0;whiteSpace=wrap;html=1;fontSize=11;" parent="1" vertex="1">
          <mxGeometry x="930" y="521" width="80" height="24" as="geometry" />
        </mxCell>
        <mxCell id="KMlsRSCv6nKyGhSPdQPw-74" value="876" style="rounded=0;whiteSpace=wrap;html=1;fontSize=11;" parent="1" vertex="1">
          <mxGeometry x="1010" y="401" width="80" height="24" as="geometry" />
        </mxCell>
        <mxCell id="KMlsRSCv6nKyGhSPdQPw-75" value="412" style="rounded=0;whiteSpace=wrap;html=1;fontSize=11;" parent="1" vertex="1">
          <mxGeometry x="1010" y="425" width="80" height="24" as="geometry" />
        </mxCell>
        <mxCell id="KMlsRSCv6nKyGhSPdQPw-76" value="10" style="rounded=0;whiteSpace=wrap;html=1;fontSize=11;" parent="1" vertex="1">
          <mxGeometry x="1010" y="449" width="80" height="24" as="geometry" />
        </mxCell>
        <mxCell id="KMlsRSCv6nKyGhSPdQPw-77" value="328" style="rounded=0;whiteSpace=wrap;html=1;fontSize=11;" parent="1" vertex="1">
          <mxGeometry x="1010" y="473" width="80" height="24" as="geometry" />
        </mxCell>
        <mxCell id="KMlsRSCv6nKyGhSPdQPw-78" value="796" style="rounded=0;whiteSpace=wrap;html=1;fontSize=11;" parent="1" vertex="1">
          <mxGeometry x="1010" y="497" width="80" height="24" as="geometry" />
        </mxCell>
        <mxCell id="KMlsRSCv6nKyGhSPdQPw-79" value="298" style="rounded=0;whiteSpace=wrap;html=1;fontSize=11;" parent="1" vertex="1">
          <mxGeometry x="1010" y="545" width="80" height="24" as="geometry" />
        </mxCell>
        <mxCell id="KMlsRSCv6nKyGhSPdQPw-80" value="989" style="rounded=0;whiteSpace=wrap;html=1;fontSize=11;" parent="1" vertex="1">
          <mxGeometry x="1010" y="521" width="80" height="24" as="geometry" />
        </mxCell>
        <mxCell id="KMlsRSCv6nKyGhSPdQPw-81" value="3" style="rounded=0;whiteSpace=wrap;html=1;fontSize=11;" parent="1" vertex="1">
          <mxGeometry x="1090" y="401" width="80" height="24" as="geometry" />
        </mxCell>
        <mxCell id="KMlsRSCv6nKyGhSPdQPw-82" value="16" style="rounded=0;whiteSpace=wrap;html=1;fontSize=11;" parent="1" vertex="1">
          <mxGeometry x="1090" y="425" width="80" height="24" as="geometry" />
        </mxCell>
        <mxCell id="KMlsRSCv6nKyGhSPdQPw-83" value="6" style="rounded=0;whiteSpace=wrap;html=1;fontSize=11;" parent="1" vertex="1">
          <mxGeometry x="1090" y="449" width="80" height="24" as="geometry" />
        </mxCell>
        <mxCell id="KMlsRSCv6nKyGhSPdQPw-84" value="23" style="rounded=0;whiteSpace=wrap;html=1;fontSize=11;" parent="1" vertex="1">
          <mxGeometry x="1090" y="473" width="80" height="24" as="geometry" />
        </mxCell>
        <mxCell id="KMlsRSCv6nKyGhSPdQPw-85" value="10" style="rounded=0;whiteSpace=wrap;html=1;fontSize=11;" parent="1" vertex="1">
          <mxGeometry x="1090" y="497" width="80" height="24" as="geometry" />
        </mxCell>
        <mxCell id="KMlsRSCv6nKyGhSPdQPw-86" value="2" style="rounded=0;whiteSpace=wrap;html=1;fontSize=11;" parent="1" vertex="1">
          <mxGeometry x="1090" y="545" width="80" height="24" as="geometry" />
        </mxCell>
        <mxCell id="KMlsRSCv6nKyGhSPdQPw-87" value="11" style="rounded=0;whiteSpace=wrap;html=1;fontSize=11;" parent="1" vertex="1">
          <mxGeometry x="1090" y="521" width="80" height="24" as="geometry" />
        </mxCell>
      </root>
    </mxGraphModel>
  </diagram>
  <diagram name="02 - pr" id="dVUUP-H48P4JGUTXP2-F">
    <mxGraphModel dx="626" dy="386" grid="1" gridSize="10" guides="1" tooltips="1" connect="1" arrows="1" fold="1" page="1" pageScale="1" pageWidth="1920" pageHeight="1200" math="0" shadow="0">
      <root>
        <mxCell id="k7Q5KpK2R1X2ydOuBHro-0" />
        <mxCell id="k7Q5KpK2R1X2ydOuBHro-1" parent="k7Q5KpK2R1X2ydOuBHro-0" />
        <mxCell id="k7Q5KpK2R1X2ydOuBHro-2" value="Database" style="rounded=0;whiteSpace=wrap;html=1;fillColor=#d5e8d4;strokeColor=#82b366;fontStyle=1;fontSize=18;" vertex="1" parent="k7Q5KpK2R1X2ydOuBHro-1">
          <mxGeometry x="790" y="300" width="390" height="30" as="geometry" />
        </mxCell>
        <mxCell id="k7Q5KpK2R1X2ydOuBHro-3" value="" style="rounded=0;whiteSpace=wrap;html=1;fontSize=18;fillColor=#d5e8d4;strokeColor=#82b366;" vertex="1" parent="k7Q5KpK2R1X2ydOuBHro-1">
          <mxGeometry x="790" y="330" width="390" height="240" as="geometry" />
        </mxCell>
        <mxCell id="k7Q5KpK2R1X2ydOuBHro-6" value="products" style="rounded=0;whiteSpace=wrap;html=1;fontSize=16;fillColor=#ffe6cc;strokeColor=#d79b00;fontStyle=1" vertex="1" parent="k7Q5KpK2R1X2ydOuBHro-1">
          <mxGeometry x="800" y="340" width="370" height="26" as="geometry" />
        </mxCell>
        <mxCell id="k7Q5KpK2R1X2ydOuBHro-49" value="id" style="rounded=0;whiteSpace=wrap;html=1;fontSize=12;fillColor=#f5f5f5;strokeColor=#666666;fontColor=#333333;fontStyle=2" vertex="1" parent="k7Q5KpK2R1X2ydOuBHro-1">
          <mxGeometry x="800" y="366" width="50" height="24" as="geometry" />
        </mxCell>
        <mxCell id="k7Q5KpK2R1X2ydOuBHro-50" value="name" style="rounded=0;whiteSpace=wrap;html=1;fontSize=12;fillColor=#f5f5f5;strokeColor=#666666;fontColor=#333333;fontStyle=2" vertex="1" parent="k7Q5KpK2R1X2ydOuBHro-1">
          <mxGeometry x="850" y="366" width="80" height="24" as="geometry" />
        </mxCell>
        <mxCell id="k7Q5KpK2R1X2ydOuBHro-51" value="department" style="rounded=0;whiteSpace=wrap;html=1;fontSize=12;fillColor=#f5f5f5;strokeColor=#666666;fontColor=#333333;fontStyle=2" vertex="1" parent="k7Q5KpK2R1X2ydOuBHro-1">
          <mxGeometry x="930" y="366" width="80" height="24" as="geometry" />
        </mxCell>
        <mxCell id="k7Q5KpK2R1X2ydOuBHro-61" value="4" style="rounded=0;whiteSpace=wrap;html=1;fontSize=11;" vertex="1" parent="k7Q5KpK2R1X2ydOuBHro-1">
          <mxGeometry x="800" y="462" width="50" height="24" as="geometry" />
        </mxCell>
        <mxCell id="k7Q5KpK2R1X2ydOuBHro-62" value="Ball" style="rounded=0;whiteSpace=wrap;html=1;fontSize=11;" vertex="1" parent="k7Q5KpK2R1X2ydOuBHro-1">
          <mxGeometry x="850" y="462" width="80" height="24" as="geometry" />
        </mxCell>
        <mxCell id="k7Q5KpK2R1X2ydOuBHro-63" value="Industrial" style="rounded=0;whiteSpace=wrap;html=1;fontSize=11;" vertex="1" parent="k7Q5KpK2R1X2ydOuBHro-1">
          <mxGeometry x="930" y="462" width="80" height="24" as="geometry" />
        </mxCell>
        <mxCell id="k7Q5KpK2R1X2ydOuBHro-64" value="5" style="rounded=0;whiteSpace=wrap;html=1;fontSize=11;" vertex="1" parent="k7Q5KpK2R1X2ydOuBHro-1">
          <mxGeometry x="800" y="486" width="50" height="24" as="geometry" />
        </mxCell>
        <mxCell id="k7Q5KpK2R1X2ydOuBHro-65" value="Fish" style="rounded=0;whiteSpace=wrap;html=1;fontSize=11;" vertex="1" parent="k7Q5KpK2R1X2ydOuBHro-1">
          <mxGeometry x="850" y="486" width="80" height="24" as="geometry" />
        </mxCell>
        <mxCell id="k7Q5KpK2R1X2ydOuBHro-66" value="Tools" style="rounded=0;whiteSpace=wrap;html=1;fontSize=11;" vertex="1" parent="k7Q5KpK2R1X2ydOuBHro-1">
          <mxGeometry x="930" y="486" width="80" height="24" as="geometry" />
        </mxCell>
        <mxCell id="k7Q5KpK2R1X2ydOuBHro-67" value="price" style="rounded=0;whiteSpace=wrap;html=1;fontSize=12;fillColor=#f5f5f5;strokeColor=#666666;fontColor=#333333;fontStyle=2" vertex="1" parent="k7Q5KpK2R1X2ydOuBHro-1">
          <mxGeometry x="1010" y="366" width="80" height="24" as="geometry" />
        </mxCell>
        <mxCell id="k7Q5KpK2R1X2ydOuBHro-68" value="weight" style="rounded=0;whiteSpace=wrap;html=1;fontSize=12;fillColor=#f5f5f5;strokeColor=#666666;fontColor=#333333;fontStyle=2" vertex="1" parent="k7Q5KpK2R1X2ydOuBHro-1">
          <mxGeometry x="1090" y="366" width="80" height="24" as="geometry" />
        </mxCell>
        <mxCell id="k7Q5KpK2R1X2ydOuBHro-78" value="328" style="rounded=0;whiteSpace=wrap;html=1;fontSize=11;" vertex="1" parent="k7Q5KpK2R1X2ydOuBHro-1">
          <mxGeometry x="1010" y="462" width="80" height="24" as="geometry" />
        </mxCell>
        <mxCell id="k7Q5KpK2R1X2ydOuBHro-79" value="796" style="rounded=0;whiteSpace=wrap;html=1;fontSize=11;" vertex="1" parent="k7Q5KpK2R1X2ydOuBHro-1">
          <mxGeometry x="1010" y="486" width="80" height="24" as="geometry" />
        </mxCell>
        <mxCell id="k7Q5KpK2R1X2ydOuBHro-85" value="23" style="rounded=0;whiteSpace=wrap;html=1;fontSize=11;" vertex="1" parent="k7Q5KpK2R1X2ydOuBHro-1">
          <mxGeometry x="1090" y="462" width="80" height="24" as="geometry" />
        </mxCell>
        <mxCell id="k7Q5KpK2R1X2ydOuBHro-86" value="10" style="rounded=0;whiteSpace=wrap;html=1;fontSize=11;" vertex="1" parent="k7Q5KpK2R1X2ydOuBHro-1">
          <mxGeometry x="1090" y="486" width="80" height="24" as="geometry" />
        </mxCell>
        <mxCell id="0rasizuytuG8sI7ZtdLp-0" value="" style="shape=curlyBracket;whiteSpace=wrap;html=1;rounded=1;" vertex="1" parent="k7Q5KpK2R1X2ydOuBHro-1">
          <mxGeometry x="767" y="390" width="30" height="72" as="geometry" />
        </mxCell>
        <mxCell id="0rasizuytuG8sI7ZtdLp-1" value="" style="shape=curlyBracket;whiteSpace=wrap;html=1;rounded=1;" vertex="1" parent="k7Q5KpK2R1X2ydOuBHro-1">
          <mxGeometry x="767" y="462" width="30" height="48" as="geometry" />
        </mxCell>
        <mxCell id="0rasizuytuG8sI7ZtdLp-2" value="OFFSET 3" style="rounded=0;whiteSpace=wrap;html=1;fontStyle=1;fillColor=#dae8fc;strokeColor=#6c8ebf;fontSize=15;" vertex="1" parent="k7Q5KpK2R1X2ydOuBHro-1">
          <mxGeometry x="660" y="403" width="107" height="46" as="geometry" />
        </mxCell>
        <mxCell id="0rasizuytuG8sI7ZtdLp-3" value="LIMIT 2" style="rounded=0;whiteSpace=wrap;html=1;fontStyle=1;fillColor=#dae8fc;strokeColor=#6c8ebf;fontSize=15;" vertex="1" parent="k7Q5KpK2R1X2ydOuBHro-1">
          <mxGeometry x="659.5" y="464" width="107" height="46" as="geometry" />
        </mxCell>
        <mxCell id="0rasizuytuG8sI7ZtdLp-4" value="Skip the first three rows of the result set" style="text;html=1;strokeColor=none;fillColor=none;align=center;verticalAlign=middle;whiteSpace=wrap;rounded=0;fontSize=15;fontStyle=2" vertex="1" parent="k7Q5KpK2R1X2ydOuBHro-1">
          <mxGeometry x="660.5" y="340" width="106.5" height="63" as="geometry" />
        </mxCell>
        <mxCell id="0rasizuytuG8sI7ZtdLp-5" value="Only give the first two rows of the result set" style="text;html=1;strokeColor=none;fillColor=none;align=center;verticalAlign=middle;whiteSpace=wrap;rounded=0;fontSize=15;fontStyle=2" vertex="1" parent="k7Q5KpK2R1X2ydOuBHro-1">
          <mxGeometry x="659.5" y="514.5" width="106.5" height="63" as="geometry" />
        </mxCell>
      </root>
    </mxGraphModel>
  </diagram>
  <diagram id="lDLjKlpKp6qRhmeaPIun" name="03 - union">
    <mxGraphModel dx="715" dy="441" grid="1" gridSize="10" guides="1" tooltips="1" connect="1" arrows="1" fold="1" page="1" pageScale="1" pageWidth="1920" pageHeight="1200" math="0" shadow="0">
      <root>
        <mxCell id="T24Dun6AdlXz_vwBmAuX-0" />
        <mxCell id="T24Dun6AdlXz_vwBmAuX-1" parent="T24Dun6AdlXz_vwBmAuX-0" />
        <mxCell id="nN4TdGjLeK_8if-sVofx-0" value="Database" style="rounded=0;whiteSpace=wrap;html=1;fillColor=#d5e8d4;strokeColor=#82b366;fontStyle=1;fontSize=18;" vertex="1" parent="T24Dun6AdlXz_vwBmAuX-1">
          <mxGeometry x="780" y="300" width="400" height="30" as="geometry" />
        </mxCell>
        <mxCell id="nN4TdGjLeK_8if-sVofx-1" value="" style="rounded=0;whiteSpace=wrap;html=1;fontSize=18;fillColor=#d5e8d4;strokeColor=#82b366;" vertex="1" parent="T24Dun6AdlXz_vwBmAuX-1">
          <mxGeometry x="780" y="330" width="400" height="250" as="geometry" />
        </mxCell>
        <mxCell id="nN4TdGjLeK_8if-sVofx-4" value="products" style="rounded=0;whiteSpace=wrap;html=1;fontSize=16;fillColor=#ffe6cc;strokeColor=#d79b00;fontStyle=1" vertex="1" parent="T24Dun6AdlXz_vwBmAuX-1">
          <mxGeometry x="795" y="346" width="370" height="26" as="geometry" />
        </mxCell>
        <mxCell id="nN4TdGjLeK_8if-sVofx-47" value="id" style="rounded=0;whiteSpace=wrap;html=1;fontSize=12;fillColor=#f5f5f5;strokeColor=#666666;fontColor=#333333;fontStyle=2" vertex="1" parent="T24Dun6AdlXz_vwBmAuX-1">
          <mxGeometry x="795" y="372" width="50" height="24" as="geometry" />
        </mxCell>
        <mxCell id="nN4TdGjLeK_8if-sVofx-48" value="name" style="rounded=0;whiteSpace=wrap;html=1;fontSize=12;fillColor=#f5f5f5;strokeColor=#666666;fontColor=#333333;fontStyle=2" vertex="1" parent="T24Dun6AdlXz_vwBmAuX-1">
          <mxGeometry x="845" y="372" width="80" height="24" as="geometry" />
        </mxCell>
        <mxCell id="nN4TdGjLeK_8if-sVofx-49" value="department" style="rounded=0;whiteSpace=wrap;html=1;fontSize=12;fillColor=#f5f5f5;strokeColor=#666666;fontColor=#333333;fontStyle=2" vertex="1" parent="T24Dun6AdlXz_vwBmAuX-1">
          <mxGeometry x="925" y="372" width="80" height="24" as="geometry" />
        </mxCell>
        <mxCell id="nN4TdGjLeK_8if-sVofx-50" value="1" style="rounded=0;whiteSpace=wrap;html=1;fontSize=11;" vertex="1" parent="T24Dun6AdlXz_vwBmAuX-1">
          <mxGeometry x="795" y="396" width="50" height="24" as="geometry" />
        </mxCell>
        <mxCell id="nN4TdGjLeK_8if-sVofx-51" value="Shirt" style="rounded=0;whiteSpace=wrap;html=1;fontSize=11;" vertex="1" parent="T24Dun6AdlXz_vwBmAuX-1">
          <mxGeometry x="845" y="396" width="80" height="24" as="geometry" />
        </mxCell>
        <mxCell id="nN4TdGjLeK_8if-sVofx-52" value="Toys" style="rounded=0;whiteSpace=wrap;html=1;fontSize=11;" vertex="1" parent="T24Dun6AdlXz_vwBmAuX-1">
          <mxGeometry x="925" y="396" width="80" height="24" as="geometry" />
        </mxCell>
        <mxCell id="nN4TdGjLeK_8if-sVofx-53" value="2" style="rounded=0;whiteSpace=wrap;html=1;fontSize=11;" vertex="1" parent="T24Dun6AdlXz_vwBmAuX-1">
          <mxGeometry x="795" y="420" width="50" height="24" as="geometry" />
        </mxCell>
        <mxCell id="nN4TdGjLeK_8if-sVofx-54" value="Towels" style="rounded=0;whiteSpace=wrap;html=1;fontSize=11;" vertex="1" parent="T24Dun6AdlXz_vwBmAuX-1">
          <mxGeometry x="845" y="420" width="80" height="24" as="geometry" />
        </mxCell>
        <mxCell id="nN4TdGjLeK_8if-sVofx-55" value="Outdoors" style="rounded=0;whiteSpace=wrap;html=1;fontSize=11;" vertex="1" parent="T24Dun6AdlXz_vwBmAuX-1">
          <mxGeometry x="925" y="420" width="80" height="24" as="geometry" />
        </mxCell>
        <mxCell id="nN4TdGjLeK_8if-sVofx-56" value="3" style="rounded=0;whiteSpace=wrap;html=1;fontSize=11;" vertex="1" parent="T24Dun6AdlXz_vwBmAuX-1">
          <mxGeometry x="795" y="444" width="50" height="24" as="geometry" />
        </mxCell>
        <mxCell id="nN4TdGjLeK_8if-sVofx-57" value="Bacon" style="rounded=0;whiteSpace=wrap;html=1;fontSize=11;" vertex="1" parent="T24Dun6AdlXz_vwBmAuX-1">
          <mxGeometry x="845" y="444" width="80" height="24" as="geometry" />
        </mxCell>
        <mxCell id="nN4TdGjLeK_8if-sVofx-58" value="Movies" style="rounded=0;whiteSpace=wrap;html=1;fontSize=11;" vertex="1" parent="T24Dun6AdlXz_vwBmAuX-1">
          <mxGeometry x="925" y="444" width="80" height="24" as="geometry" />
        </mxCell>
        <mxCell id="nN4TdGjLeK_8if-sVofx-59" value="4" style="rounded=0;whiteSpace=wrap;html=1;fontSize=11;" vertex="1" parent="T24Dun6AdlXz_vwBmAuX-1">
          <mxGeometry x="795" y="468" width="50" height="24" as="geometry" />
        </mxCell>
        <mxCell id="nN4TdGjLeK_8if-sVofx-60" value="Ball" style="rounded=0;whiteSpace=wrap;html=1;fontSize=11;" vertex="1" parent="T24Dun6AdlXz_vwBmAuX-1">
          <mxGeometry x="845" y="468" width="80" height="24" as="geometry" />
        </mxCell>
        <mxCell id="nN4TdGjLeK_8if-sVofx-61" value="Industrial" style="rounded=0;whiteSpace=wrap;html=1;fontSize=11;" vertex="1" parent="T24Dun6AdlXz_vwBmAuX-1">
          <mxGeometry x="925" y="468" width="80" height="24" as="geometry" />
        </mxCell>
        <mxCell id="nN4TdGjLeK_8if-sVofx-62" value="5" style="rounded=0;whiteSpace=wrap;html=1;fontSize=11;" vertex="1" parent="T24Dun6AdlXz_vwBmAuX-1">
          <mxGeometry x="795" y="492" width="50" height="24" as="geometry" />
        </mxCell>
        <mxCell id="nN4TdGjLeK_8if-sVofx-63" value="Fish" style="rounded=0;whiteSpace=wrap;html=1;fontSize=11;" vertex="1" parent="T24Dun6AdlXz_vwBmAuX-1">
          <mxGeometry x="845" y="492" width="80" height="24" as="geometry" />
        </mxCell>
        <mxCell id="nN4TdGjLeK_8if-sVofx-64" value="Tools" style="rounded=0;whiteSpace=wrap;html=1;fontSize=11;" vertex="1" parent="T24Dun6AdlXz_vwBmAuX-1">
          <mxGeometry x="925" y="492" width="80" height="24" as="geometry" />
        </mxCell>
        <mxCell id="nN4TdGjLeK_8if-sVofx-65" value="price" style="rounded=0;whiteSpace=wrap;html=1;fontSize=12;fillColor=#f5f5f5;strokeColor=#666666;fontColor=#333333;fontStyle=2" vertex="1" parent="T24Dun6AdlXz_vwBmAuX-1">
          <mxGeometry x="1005" y="372" width="80" height="24" as="geometry" />
        </mxCell>
        <mxCell id="nN4TdGjLeK_8if-sVofx-66" value="weight" style="rounded=0;whiteSpace=wrap;html=1;fontSize=12;fillColor=#f5f5f5;strokeColor=#666666;fontColor=#333333;fontStyle=2" vertex="1" parent="T24Dun6AdlXz_vwBmAuX-1">
          <mxGeometry x="1085" y="372" width="80" height="24" as="geometry" />
        </mxCell>
        <mxCell id="nN4TdGjLeK_8if-sVofx-67" value="7" style="rounded=0;whiteSpace=wrap;html=1;fontSize=11;" vertex="1" parent="T24Dun6AdlXz_vwBmAuX-1">
          <mxGeometry x="795" y="540" width="50" height="24" as="geometry" />
        </mxCell>
        <mxCell id="nN4TdGjLeK_8if-sVofx-68" value="Computer" style="rounded=0;whiteSpace=wrap;html=1;fontSize=11;" vertex="1" parent="T24Dun6AdlXz_vwBmAuX-1">
          <mxGeometry x="845" y="540" width="80" height="24" as="geometry" />
        </mxCell>
        <mxCell id="nN4TdGjLeK_8if-sVofx-69" value="Home" style="rounded=0;whiteSpace=wrap;html=1;fontSize=11;" vertex="1" parent="T24Dun6AdlXz_vwBmAuX-1">
          <mxGeometry x="925" y="540" width="80" height="24" as="geometry" />
        </mxCell>
        <mxCell id="nN4TdGjLeK_8if-sVofx-70" value="6" style="rounded=0;whiteSpace=wrap;html=1;fontSize=11;" vertex="1" parent="T24Dun6AdlXz_vwBmAuX-1">
          <mxGeometry x="795" y="516" width="50" height="24" as="geometry" />
        </mxCell>
        <mxCell id="nN4TdGjLeK_8if-sVofx-71" value="Mouse" style="rounded=0;whiteSpace=wrap;html=1;fontSize=11;" vertex="1" parent="T24Dun6AdlXz_vwBmAuX-1">
          <mxGeometry x="845" y="516" width="80" height="24" as="geometry" />
        </mxCell>
        <mxCell id="nN4TdGjLeK_8if-sVofx-72" value="Grocery" style="rounded=0;whiteSpace=wrap;html=1;fontSize=11;" vertex="1" parent="T24Dun6AdlXz_vwBmAuX-1">
          <mxGeometry x="925" y="516" width="80" height="24" as="geometry" />
        </mxCell>
        <mxCell id="nN4TdGjLeK_8if-sVofx-73" value="876" style="rounded=0;whiteSpace=wrap;html=1;fontSize=11;" vertex="1" parent="T24Dun6AdlXz_vwBmAuX-1">
          <mxGeometry x="1005" y="396" width="80" height="24" as="geometry" />
        </mxCell>
        <mxCell id="nN4TdGjLeK_8if-sVofx-74" value="412" style="rounded=0;whiteSpace=wrap;html=1;fontSize=11;" vertex="1" parent="T24Dun6AdlXz_vwBmAuX-1">
          <mxGeometry x="1005" y="420" width="80" height="24" as="geometry" />
        </mxCell>
        <mxCell id="nN4TdGjLeK_8if-sVofx-75" value="10" style="rounded=0;whiteSpace=wrap;html=1;fontSize=11;" vertex="1" parent="T24Dun6AdlXz_vwBmAuX-1">
          <mxGeometry x="1005" y="444" width="80" height="24" as="geometry" />
        </mxCell>
        <mxCell id="nN4TdGjLeK_8if-sVofx-76" value="328" style="rounded=0;whiteSpace=wrap;html=1;fontSize=11;" vertex="1" parent="T24Dun6AdlXz_vwBmAuX-1">
          <mxGeometry x="1005" y="468" width="80" height="24" as="geometry" />
        </mxCell>
        <mxCell id="nN4TdGjLeK_8if-sVofx-77" value="796" style="rounded=0;whiteSpace=wrap;html=1;fontSize=11;" vertex="1" parent="T24Dun6AdlXz_vwBmAuX-1">
          <mxGeometry x="1005" y="492" width="80" height="24" as="geometry" />
        </mxCell>
        <mxCell id="nN4TdGjLeK_8if-sVofx-78" value="298" style="rounded=0;whiteSpace=wrap;html=1;fontSize=11;" vertex="1" parent="T24Dun6AdlXz_vwBmAuX-1">
          <mxGeometry x="1005" y="540" width="80" height="24" as="geometry" />
        </mxCell>
        <mxCell id="nN4TdGjLeK_8if-sVofx-79" value="989" style="rounded=0;whiteSpace=wrap;html=1;fontSize=11;" vertex="1" parent="T24Dun6AdlXz_vwBmAuX-1">
          <mxGeometry x="1005" y="516" width="80" height="24" as="geometry" />
        </mxCell>
        <mxCell id="nN4TdGjLeK_8if-sVofx-80" value="3" style="rounded=0;whiteSpace=wrap;html=1;fontSize=11;" vertex="1" parent="T24Dun6AdlXz_vwBmAuX-1">
          <mxGeometry x="1085" y="396" width="80" height="24" as="geometry" />
        </mxCell>
        <mxCell id="nN4TdGjLeK_8if-sVofx-81" value="16" style="rounded=0;whiteSpace=wrap;html=1;fontSize=11;" vertex="1" parent="T24Dun6AdlXz_vwBmAuX-1">
          <mxGeometry x="1085" y="420" width="80" height="24" as="geometry" />
        </mxCell>
        <mxCell id="nN4TdGjLeK_8if-sVofx-82" value="6" style="rounded=0;whiteSpace=wrap;html=1;fontSize=11;" vertex="1" parent="T24Dun6AdlXz_vwBmAuX-1">
          <mxGeometry x="1085" y="444" width="80" height="24" as="geometry" />
        </mxCell>
        <mxCell id="nN4TdGjLeK_8if-sVofx-83" value="23" style="rounded=0;whiteSpace=wrap;html=1;fontSize=11;" vertex="1" parent="T24Dun6AdlXz_vwBmAuX-1">
          <mxGeometry x="1085" y="468" width="80" height="24" as="geometry" />
        </mxCell>
        <mxCell id="nN4TdGjLeK_8if-sVofx-84" value="10" style="rounded=0;whiteSpace=wrap;html=1;fontSize=11;" vertex="1" parent="T24Dun6AdlXz_vwBmAuX-1">
          <mxGeometry x="1085" y="492" width="80" height="24" as="geometry" />
        </mxCell>
        <mxCell id="nN4TdGjLeK_8if-sVofx-85" value="2" style="rounded=0;whiteSpace=wrap;html=1;fontSize=11;" vertex="1" parent="T24Dun6AdlXz_vwBmAuX-1">
          <mxGeometry x="1085" y="540" width="80" height="24" as="geometry" />
        </mxCell>
        <mxCell id="nN4TdGjLeK_8if-sVofx-86" value="11" style="rounded=0;whiteSpace=wrap;html=1;fontSize=11;" vertex="1" parent="T24Dun6AdlXz_vwBmAuX-1">
          <mxGeometry x="1085" y="516" width="80" height="24" as="geometry" />
        </mxCell>
        <mxCell id="nN4TdGjLeK_8if-sVofx-87" value="&lt;i&gt;Find the 4 products with the highest price &lt;b&gt;and &lt;/b&gt;the 4 products with the highest price/weight ratio&lt;/i&gt;" style="rounded=0;whiteSpace=wrap;html=1;fontSize=15;fillColor=#fff2cc;strokeColor=#d6b656;" vertex="1" parent="T24Dun6AdlXz_vwBmAuX-1">
          <mxGeometry x="540" y="405" width="220" height="100" as="geometry" />
        </mxCell>
      </root>
    </mxGraphModel>
  </diagram>
  <diagram name="04 - union" id="vWt15FnUlG7xOciGPKIv">
    <mxGraphModel dx="969" dy="597" grid="1" gridSize="10" guides="1" tooltips="1" connect="1" arrows="1" fold="1" page="1" pageScale="1" pageWidth="1920" pageHeight="1200" math="0" shadow="0">
      <root>
        <mxCell id="z3x4-ySEqFO63D4qRMX3-0" />
        <mxCell id="z3x4-ySEqFO63D4qRMX3-1" parent="z3x4-ySEqFO63D4qRMX3-0" />
        <mxCell id="z3x4-ySEqFO63D4qRMX3-2" value="Database" style="rounded=0;whiteSpace=wrap;html=1;fillColor=#d5e8d4;strokeColor=#82b366;fontStyle=1;fontSize=18;" vertex="1" parent="z3x4-ySEqFO63D4qRMX3-1">
          <mxGeometry x="580" y="300" width="800" height="30" as="geometry" />
        </mxCell>
        <mxCell id="z3x4-ySEqFO63D4qRMX3-3" value="" style="rounded=0;whiteSpace=wrap;html=1;fontSize=18;fillColor=#d5e8d4;strokeColor=#82b366;" vertex="1" parent="z3x4-ySEqFO63D4qRMX3-1">
          <mxGeometry x="580" y="330" width="800" height="510" as="geometry" />
        </mxCell>
        <mxCell id="z3x4-ySEqFO63D4qRMX3-4" value="products" style="rounded=0;whiteSpace=wrap;html=1;fontSize=16;fillColor=#ffe6cc;strokeColor=#d79b00;fontStyle=1" vertex="1" parent="z3x4-ySEqFO63D4qRMX3-1">
          <mxGeometry x="785" y="340" width="370" height="26" as="geometry" />
        </mxCell>
        <mxCell id="z3x4-ySEqFO63D4qRMX3-5" value="id" style="rounded=0;whiteSpace=wrap;html=1;fontSize=12;fillColor=#f5f5f5;strokeColor=#666666;fontColor=#333333;fontStyle=2" vertex="1" parent="z3x4-ySEqFO63D4qRMX3-1">
          <mxGeometry x="785" y="366" width="50" height="24" as="geometry" />
        </mxCell>
        <mxCell id="z3x4-ySEqFO63D4qRMX3-6" value="name" style="rounded=0;whiteSpace=wrap;html=1;fontSize=12;fillColor=#f5f5f5;strokeColor=#666666;fontColor=#333333;fontStyle=2" vertex="1" parent="z3x4-ySEqFO63D4qRMX3-1">
          <mxGeometry x="835" y="366" width="80" height="24" as="geometry" />
        </mxCell>
        <mxCell id="z3x4-ySEqFO63D4qRMX3-7" value="department" style="rounded=0;whiteSpace=wrap;html=1;fontSize=12;fillColor=#f5f5f5;strokeColor=#666666;fontColor=#333333;fontStyle=2" vertex="1" parent="z3x4-ySEqFO63D4qRMX3-1">
          <mxGeometry x="915" y="366" width="80" height="24" as="geometry" />
        </mxCell>
        <mxCell id="z3x4-ySEqFO63D4qRMX3-8" value="1" style="rounded=0;whiteSpace=wrap;html=1;fontSize=11;" vertex="1" parent="z3x4-ySEqFO63D4qRMX3-1">
          <mxGeometry x="785" y="390" width="50" height="24" as="geometry" />
        </mxCell>
        <mxCell id="z3x4-ySEqFO63D4qRMX3-9" value="Shirt" style="rounded=0;whiteSpace=wrap;html=1;fontSize=11;" vertex="1" parent="z3x4-ySEqFO63D4qRMX3-1">
          <mxGeometry x="835" y="390" width="80" height="24" as="geometry" />
        </mxCell>
        <mxCell id="z3x4-ySEqFO63D4qRMX3-10" value="Toys" style="rounded=0;whiteSpace=wrap;html=1;fontSize=11;" vertex="1" parent="z3x4-ySEqFO63D4qRMX3-1">
          <mxGeometry x="915" y="390" width="80" height="24" as="geometry" />
        </mxCell>
        <mxCell id="z3x4-ySEqFO63D4qRMX3-11" value="2" style="rounded=0;whiteSpace=wrap;html=1;fontSize=11;" vertex="1" parent="z3x4-ySEqFO63D4qRMX3-1">
          <mxGeometry x="785" y="414" width="50" height="24" as="geometry" />
        </mxCell>
        <mxCell id="z3x4-ySEqFO63D4qRMX3-12" value="Towels" style="rounded=0;whiteSpace=wrap;html=1;fontSize=11;" vertex="1" parent="z3x4-ySEqFO63D4qRMX3-1">
          <mxGeometry x="835" y="414" width="80" height="24" as="geometry" />
        </mxCell>
        <mxCell id="z3x4-ySEqFO63D4qRMX3-13" value="Outdoors" style="rounded=0;whiteSpace=wrap;html=1;fontSize=11;" vertex="1" parent="z3x4-ySEqFO63D4qRMX3-1">
          <mxGeometry x="915" y="414" width="80" height="24" as="geometry" />
        </mxCell>
        <mxCell id="z3x4-ySEqFO63D4qRMX3-14" value="3" style="rounded=0;whiteSpace=wrap;html=1;fontSize=11;" vertex="1" parent="z3x4-ySEqFO63D4qRMX3-1">
          <mxGeometry x="785" y="438" width="50" height="24" as="geometry" />
        </mxCell>
        <mxCell id="z3x4-ySEqFO63D4qRMX3-15" value="Bacon" style="rounded=0;whiteSpace=wrap;html=1;fontSize=11;" vertex="1" parent="z3x4-ySEqFO63D4qRMX3-1">
          <mxGeometry x="835" y="438" width="80" height="24" as="geometry" />
        </mxCell>
        <mxCell id="z3x4-ySEqFO63D4qRMX3-16" value="Movies" style="rounded=0;whiteSpace=wrap;html=1;fontSize=11;" vertex="1" parent="z3x4-ySEqFO63D4qRMX3-1">
          <mxGeometry x="915" y="438" width="80" height="24" as="geometry" />
        </mxCell>
        <mxCell id="z3x4-ySEqFO63D4qRMX3-17" value="4" style="rounded=0;whiteSpace=wrap;html=1;fontSize=11;" vertex="1" parent="z3x4-ySEqFO63D4qRMX3-1">
          <mxGeometry x="785" y="462" width="50" height="24" as="geometry" />
        </mxCell>
        <mxCell id="z3x4-ySEqFO63D4qRMX3-18" value="Ball" style="rounded=0;whiteSpace=wrap;html=1;fontSize=11;" vertex="1" parent="z3x4-ySEqFO63D4qRMX3-1">
          <mxGeometry x="835" y="462" width="80" height="24" as="geometry" />
        </mxCell>
        <mxCell id="z3x4-ySEqFO63D4qRMX3-19" value="Industrial" style="rounded=0;whiteSpace=wrap;html=1;fontSize=11;" vertex="1" parent="z3x4-ySEqFO63D4qRMX3-1">
          <mxGeometry x="915" y="462" width="80" height="24" as="geometry" />
        </mxCell>
        <mxCell id="z3x4-ySEqFO63D4qRMX3-20" value="5" style="rounded=0;whiteSpace=wrap;html=1;fontSize=11;" vertex="1" parent="z3x4-ySEqFO63D4qRMX3-1">
          <mxGeometry x="785" y="486" width="50" height="24" as="geometry" />
        </mxCell>
        <mxCell id="z3x4-ySEqFO63D4qRMX3-21" value="Fish" style="rounded=0;whiteSpace=wrap;html=1;fontSize=11;" vertex="1" parent="z3x4-ySEqFO63D4qRMX3-1">
          <mxGeometry x="835" y="486" width="80" height="24" as="geometry" />
        </mxCell>
        <mxCell id="z3x4-ySEqFO63D4qRMX3-22" value="Tools" style="rounded=0;whiteSpace=wrap;html=1;fontSize=11;" vertex="1" parent="z3x4-ySEqFO63D4qRMX3-1">
          <mxGeometry x="915" y="486" width="80" height="24" as="geometry" />
        </mxCell>
        <mxCell id="z3x4-ySEqFO63D4qRMX3-23" value="price" style="rounded=0;whiteSpace=wrap;html=1;fontSize=12;fillColor=#f5f5f5;strokeColor=#666666;fontColor=#333333;fontStyle=2" vertex="1" parent="z3x4-ySEqFO63D4qRMX3-1">
          <mxGeometry x="995" y="366" width="80" height="24" as="geometry" />
        </mxCell>
        <mxCell id="z3x4-ySEqFO63D4qRMX3-24" value="weight" style="rounded=0;whiteSpace=wrap;html=1;fontSize=12;fillColor=#f5f5f5;strokeColor=#666666;fontColor=#333333;fontStyle=2" vertex="1" parent="z3x4-ySEqFO63D4qRMX3-1">
          <mxGeometry x="1075" y="366" width="80" height="24" as="geometry" />
        </mxCell>
        <mxCell id="z3x4-ySEqFO63D4qRMX3-25" value="7" style="rounded=0;whiteSpace=wrap;html=1;fontSize=11;" vertex="1" parent="z3x4-ySEqFO63D4qRMX3-1">
          <mxGeometry x="785" y="534" width="50" height="24" as="geometry" />
        </mxCell>
        <mxCell id="z3x4-ySEqFO63D4qRMX3-26" value="Computer" style="rounded=0;whiteSpace=wrap;html=1;fontSize=11;" vertex="1" parent="z3x4-ySEqFO63D4qRMX3-1">
          <mxGeometry x="835" y="534" width="80" height="24" as="geometry" />
        </mxCell>
        <mxCell id="z3x4-ySEqFO63D4qRMX3-27" value="Home" style="rounded=0;whiteSpace=wrap;html=1;fontSize=11;" vertex="1" parent="z3x4-ySEqFO63D4qRMX3-1">
          <mxGeometry x="915" y="534" width="80" height="24" as="geometry" />
        </mxCell>
        <mxCell id="z3x4-ySEqFO63D4qRMX3-28" value="6" style="rounded=0;whiteSpace=wrap;html=1;fontSize=11;" vertex="1" parent="z3x4-ySEqFO63D4qRMX3-1">
          <mxGeometry x="785" y="510" width="50" height="24" as="geometry" />
        </mxCell>
        <mxCell id="z3x4-ySEqFO63D4qRMX3-29" value="Mouse" style="rounded=0;whiteSpace=wrap;html=1;fontSize=11;" vertex="1" parent="z3x4-ySEqFO63D4qRMX3-1">
          <mxGeometry x="835" y="510" width="80" height="24" as="geometry" />
        </mxCell>
        <mxCell id="z3x4-ySEqFO63D4qRMX3-30" value="Grocery" style="rounded=0;whiteSpace=wrap;html=1;fontSize=11;" vertex="1" parent="z3x4-ySEqFO63D4qRMX3-1">
          <mxGeometry x="915" y="510" width="80" height="24" as="geometry" />
        </mxCell>
        <mxCell id="z3x4-ySEqFO63D4qRMX3-31" value="876" style="rounded=0;whiteSpace=wrap;html=1;fontSize=11;" vertex="1" parent="z3x4-ySEqFO63D4qRMX3-1">
          <mxGeometry x="995" y="390" width="80" height="24" as="geometry" />
        </mxCell>
        <mxCell id="z3x4-ySEqFO63D4qRMX3-32" value="412" style="rounded=0;whiteSpace=wrap;html=1;fontSize=11;" vertex="1" parent="z3x4-ySEqFO63D4qRMX3-1">
          <mxGeometry x="995" y="414" width="80" height="24" as="geometry" />
        </mxCell>
        <mxCell id="z3x4-ySEqFO63D4qRMX3-33" value="10" style="rounded=0;whiteSpace=wrap;html=1;fontSize=11;" vertex="1" parent="z3x4-ySEqFO63D4qRMX3-1">
          <mxGeometry x="995" y="438" width="80" height="24" as="geometry" />
        </mxCell>
        <mxCell id="z3x4-ySEqFO63D4qRMX3-34" value="328" style="rounded=0;whiteSpace=wrap;html=1;fontSize=11;" vertex="1" parent="z3x4-ySEqFO63D4qRMX3-1">
          <mxGeometry x="995" y="462" width="80" height="24" as="geometry" />
        </mxCell>
        <mxCell id="z3x4-ySEqFO63D4qRMX3-35" value="796" style="rounded=0;whiteSpace=wrap;html=1;fontSize=11;" vertex="1" parent="z3x4-ySEqFO63D4qRMX3-1">
          <mxGeometry x="995" y="486" width="80" height="24" as="geometry" />
        </mxCell>
        <mxCell id="z3x4-ySEqFO63D4qRMX3-36" value="298" style="rounded=0;whiteSpace=wrap;html=1;fontSize=11;" vertex="1" parent="z3x4-ySEqFO63D4qRMX3-1">
          <mxGeometry x="995" y="534" width="80" height="24" as="geometry" />
        </mxCell>
        <mxCell id="z3x4-ySEqFO63D4qRMX3-37" value="989" style="rounded=0;whiteSpace=wrap;html=1;fontSize=11;" vertex="1" parent="z3x4-ySEqFO63D4qRMX3-1">
          <mxGeometry x="995" y="510" width="80" height="24" as="geometry" />
        </mxCell>
        <mxCell id="z3x4-ySEqFO63D4qRMX3-38" value="3" style="rounded=0;whiteSpace=wrap;html=1;fontSize=11;" vertex="1" parent="z3x4-ySEqFO63D4qRMX3-1">
          <mxGeometry x="1075" y="390" width="80" height="24" as="geometry" />
        </mxCell>
        <mxCell id="z3x4-ySEqFO63D4qRMX3-39" value="16" style="rounded=0;whiteSpace=wrap;html=1;fontSize=11;" vertex="1" parent="z3x4-ySEqFO63D4qRMX3-1">
          <mxGeometry x="1075" y="414" width="80" height="24" as="geometry" />
        </mxCell>
        <mxCell id="z3x4-ySEqFO63D4qRMX3-40" value="6" style="rounded=0;whiteSpace=wrap;html=1;fontSize=11;" vertex="1" parent="z3x4-ySEqFO63D4qRMX3-1">
          <mxGeometry x="1075" y="438" width="80" height="24" as="geometry" />
        </mxCell>
        <mxCell id="z3x4-ySEqFO63D4qRMX3-41" value="23" style="rounded=0;whiteSpace=wrap;html=1;fontSize=11;" vertex="1" parent="z3x4-ySEqFO63D4qRMX3-1">
          <mxGeometry x="1075" y="462" width="80" height="24" as="geometry" />
        </mxCell>
        <mxCell id="z3x4-ySEqFO63D4qRMX3-42" value="10" style="rounded=0;whiteSpace=wrap;html=1;fontSize=11;" vertex="1" parent="z3x4-ySEqFO63D4qRMX3-1">
          <mxGeometry x="1075" y="486" width="80" height="24" as="geometry" />
        </mxCell>
        <mxCell id="z3x4-ySEqFO63D4qRMX3-43" value="2" style="rounded=0;whiteSpace=wrap;html=1;fontSize=11;" vertex="1" parent="z3x4-ySEqFO63D4qRMX3-1">
          <mxGeometry x="1075" y="534" width="80" height="24" as="geometry" />
        </mxCell>
        <mxCell id="z3x4-ySEqFO63D4qRMX3-44" value="11" style="rounded=0;whiteSpace=wrap;html=1;fontSize=11;" vertex="1" parent="z3x4-ySEqFO63D4qRMX3-1">
          <mxGeometry x="1075" y="510" width="80" height="24" as="geometry" />
        </mxCell>
        <mxCell id="z3x4-ySEqFO63D4qRMX3-87" value="&lt;b&gt;SELECT&lt;/b&gt; name, &lt;i&gt;price&lt;/i&gt;&lt;br&gt;&lt;b&gt;FROM&lt;/b&gt; products" style="rounded=0;whiteSpace=wrap;html=1;fontSize=15;fillColor=#dae8fc;strokeColor=#6c8ebf;align=left;spacingLeft=15;" vertex="1" parent="z3x4-ySEqFO63D4qRMX3-1">
          <mxGeometry x="680" y="570" width="190" height="60" as="geometry" />
        </mxCell>
        <mxCell id="z3x4-ySEqFO63D4qRMX3-88" value="&lt;b&gt;SELECT&lt;/b&gt; name, &lt;i&gt;weight&lt;/i&gt;&lt;br&gt;&lt;b&gt;FROM&lt;/b&gt; products" style="rounded=0;whiteSpace=wrap;html=1;fontSize=15;fillColor=#f8cecc;strokeColor=#b85450;align=left;spacingLeft=15;" vertex="1" parent="z3x4-ySEqFO63D4qRMX3-1">
          <mxGeometry x="1080" y="570" width="190" height="60" as="geometry" />
        </mxCell>
        <mxCell id="z3x4-ySEqFO63D4qRMX3-91" value="name" style="rounded=0;whiteSpace=wrap;html=1;fontSize=12;fillColor=#f5f5f5;strokeColor=#666666;fontColor=#333333;fontStyle=2" vertex="1" parent="z3x4-ySEqFO63D4qRMX3-1">
          <mxGeometry x="695" y="640" width="80" height="24" as="geometry" />
        </mxCell>
        <mxCell id="z3x4-ySEqFO63D4qRMX3-94" value="Shirt" style="rounded=0;whiteSpace=wrap;html=1;fontSize=11;" vertex="1" parent="z3x4-ySEqFO63D4qRMX3-1">
          <mxGeometry x="695" y="664" width="80" height="24" as="geometry" />
        </mxCell>
        <mxCell id="z3x4-ySEqFO63D4qRMX3-97" value="Towels" style="rounded=0;whiteSpace=wrap;html=1;fontSize=11;" vertex="1" parent="z3x4-ySEqFO63D4qRMX3-1">
          <mxGeometry x="695" y="688" width="80" height="24" as="geometry" />
        </mxCell>
        <mxCell id="z3x4-ySEqFO63D4qRMX3-100" value="Bacon" style="rounded=0;whiteSpace=wrap;html=1;fontSize=11;" vertex="1" parent="z3x4-ySEqFO63D4qRMX3-1">
          <mxGeometry x="695" y="712" width="80" height="24" as="geometry" />
        </mxCell>
        <mxCell id="z3x4-ySEqFO63D4qRMX3-103" value="Ball" style="rounded=0;whiteSpace=wrap;html=1;fontSize=11;" vertex="1" parent="z3x4-ySEqFO63D4qRMX3-1">
          <mxGeometry x="695" y="736" width="80" height="24" as="geometry" />
        </mxCell>
        <mxCell id="z3x4-ySEqFO63D4qRMX3-106" value="Fish" style="rounded=0;whiteSpace=wrap;html=1;fontSize=11;" vertex="1" parent="z3x4-ySEqFO63D4qRMX3-1">
          <mxGeometry x="695" y="760" width="80" height="24" as="geometry" />
        </mxCell>
        <mxCell id="z3x4-ySEqFO63D4qRMX3-108" value="price" style="rounded=0;whiteSpace=wrap;html=1;fontSize=12;fillColor=#f5f5f5;strokeColor=#666666;fontColor=#333333;fontStyle=2" vertex="1" parent="z3x4-ySEqFO63D4qRMX3-1">
          <mxGeometry x="775" y="640" width="80" height="24" as="geometry" />
        </mxCell>
        <mxCell id="z3x4-ySEqFO63D4qRMX3-111" value="Computer" style="rounded=0;whiteSpace=wrap;html=1;fontSize=11;" vertex="1" parent="z3x4-ySEqFO63D4qRMX3-1">
          <mxGeometry x="695" y="808" width="80" height="24" as="geometry" />
        </mxCell>
        <mxCell id="z3x4-ySEqFO63D4qRMX3-114" value="Mouse" style="rounded=0;whiteSpace=wrap;html=1;fontSize=11;" vertex="1" parent="z3x4-ySEqFO63D4qRMX3-1">
          <mxGeometry x="695" y="784" width="80" height="24" as="geometry" />
        </mxCell>
        <mxCell id="z3x4-ySEqFO63D4qRMX3-116" value="876" style="rounded=0;whiteSpace=wrap;html=1;fontSize=11;" vertex="1" parent="z3x4-ySEqFO63D4qRMX3-1">
          <mxGeometry x="775" y="664" width="80" height="24" as="geometry" />
        </mxCell>
        <mxCell id="z3x4-ySEqFO63D4qRMX3-117" value="412" style="rounded=0;whiteSpace=wrap;html=1;fontSize=11;" vertex="1" parent="z3x4-ySEqFO63D4qRMX3-1">
          <mxGeometry x="775" y="688" width="80" height="24" as="geometry" />
        </mxCell>
        <mxCell id="z3x4-ySEqFO63D4qRMX3-118" value="10" style="rounded=0;whiteSpace=wrap;html=1;fontSize=11;" vertex="1" parent="z3x4-ySEqFO63D4qRMX3-1">
          <mxGeometry x="775" y="712" width="80" height="24" as="geometry" />
        </mxCell>
        <mxCell id="z3x4-ySEqFO63D4qRMX3-119" value="328" style="rounded=0;whiteSpace=wrap;html=1;fontSize=11;" vertex="1" parent="z3x4-ySEqFO63D4qRMX3-1">
          <mxGeometry x="775" y="736" width="80" height="24" as="geometry" />
        </mxCell>
        <mxCell id="z3x4-ySEqFO63D4qRMX3-120" value="796" style="rounded=0;whiteSpace=wrap;html=1;fontSize=11;" vertex="1" parent="z3x4-ySEqFO63D4qRMX3-1">
          <mxGeometry x="775" y="760" width="80" height="24" as="geometry" />
        </mxCell>
        <mxCell id="z3x4-ySEqFO63D4qRMX3-121" value="298" style="rounded=0;whiteSpace=wrap;html=1;fontSize=11;" vertex="1" parent="z3x4-ySEqFO63D4qRMX3-1">
          <mxGeometry x="775" y="808" width="80" height="24" as="geometry" />
        </mxCell>
        <mxCell id="z3x4-ySEqFO63D4qRMX3-122" value="989" style="rounded=0;whiteSpace=wrap;html=1;fontSize=11;" vertex="1" parent="z3x4-ySEqFO63D4qRMX3-1">
          <mxGeometry x="775" y="784" width="80" height="24" as="geometry" />
        </mxCell>
        <mxCell id="z3x4-ySEqFO63D4qRMX3-132" value="price" style="rounded=0;whiteSpace=wrap;html=1;fontSize=12;fillColor=#f5f5f5;strokeColor=#666666;fontColor=#333333;fontStyle=2" vertex="1" parent="z3x4-ySEqFO63D4qRMX3-1">
          <mxGeometry x="1095" y="640" width="80" height="24" as="geometry" />
        </mxCell>
        <mxCell id="z3x4-ySEqFO63D4qRMX3-135" value="Shirt" style="rounded=0;whiteSpace=wrap;html=1;fontSize=11;" vertex="1" parent="z3x4-ySEqFO63D4qRMX3-1">
          <mxGeometry x="1095" y="664" width="80" height="24" as="geometry" />
        </mxCell>
        <mxCell id="z3x4-ySEqFO63D4qRMX3-138" value="Towels" style="rounded=0;whiteSpace=wrap;html=1;fontSize=11;" vertex="1" parent="z3x4-ySEqFO63D4qRMX3-1">
          <mxGeometry x="1095" y="688" width="80" height="24" as="geometry" />
        </mxCell>
        <mxCell id="z3x4-ySEqFO63D4qRMX3-141" value="Bacon" style="rounded=0;whiteSpace=wrap;html=1;fontSize=11;" vertex="1" parent="z3x4-ySEqFO63D4qRMX3-1">
          <mxGeometry x="1095" y="712" width="80" height="24" as="geometry" />
        </mxCell>
        <mxCell id="z3x4-ySEqFO63D4qRMX3-144" value="Ball" style="rounded=0;whiteSpace=wrap;html=1;fontSize=11;" vertex="1" parent="z3x4-ySEqFO63D4qRMX3-1">
          <mxGeometry x="1095" y="736" width="80" height="24" as="geometry" />
        </mxCell>
        <mxCell id="z3x4-ySEqFO63D4qRMX3-147" value="Fish" style="rounded=0;whiteSpace=wrap;html=1;fontSize=11;" vertex="1" parent="z3x4-ySEqFO63D4qRMX3-1">
          <mxGeometry x="1095" y="760" width="80" height="24" as="geometry" />
        </mxCell>
        <mxCell id="z3x4-ySEqFO63D4qRMX3-150" value="name" style="rounded=0;whiteSpace=wrap;html=1;fontSize=12;fillColor=#f5f5f5;strokeColor=#666666;fontColor=#333333;fontStyle=2" vertex="1" parent="z3x4-ySEqFO63D4qRMX3-1">
          <mxGeometry x="1175" y="640" width="80" height="24" as="geometry" />
        </mxCell>
        <mxCell id="z3x4-ySEqFO63D4qRMX3-152" value="Computer" style="rounded=0;whiteSpace=wrap;html=1;fontSize=11;" vertex="1" parent="z3x4-ySEqFO63D4qRMX3-1">
          <mxGeometry x="1095" y="808" width="80" height="24" as="geometry" />
        </mxCell>
        <mxCell id="z3x4-ySEqFO63D4qRMX3-155" value="Mouse" style="rounded=0;whiteSpace=wrap;html=1;fontSize=11;" vertex="1" parent="z3x4-ySEqFO63D4qRMX3-1">
          <mxGeometry x="1095" y="784" width="80" height="24" as="geometry" />
        </mxCell>
        <mxCell id="z3x4-ySEqFO63D4qRMX3-164" value="3" style="rounded=0;whiteSpace=wrap;html=1;fontSize=11;" vertex="1" parent="z3x4-ySEqFO63D4qRMX3-1">
          <mxGeometry x="1175" y="664" width="80" height="24" as="geometry" />
        </mxCell>
        <mxCell id="z3x4-ySEqFO63D4qRMX3-165" value="16" style="rounded=0;whiteSpace=wrap;html=1;fontSize=11;" vertex="1" parent="z3x4-ySEqFO63D4qRMX3-1">
          <mxGeometry x="1175" y="688" width="80" height="24" as="geometry" />
        </mxCell>
        <mxCell id="z3x4-ySEqFO63D4qRMX3-166" value="6" style="rounded=0;whiteSpace=wrap;html=1;fontSize=11;" vertex="1" parent="z3x4-ySEqFO63D4qRMX3-1">
          <mxGeometry x="1175" y="712" width="80" height="24" as="geometry" />
        </mxCell>
        <mxCell id="z3x4-ySEqFO63D4qRMX3-167" value="23" style="rounded=0;whiteSpace=wrap;html=1;fontSize=11;" vertex="1" parent="z3x4-ySEqFO63D4qRMX3-1">
          <mxGeometry x="1175" y="736" width="80" height="24" as="geometry" />
        </mxCell>
        <mxCell id="z3x4-ySEqFO63D4qRMX3-168" value="10" style="rounded=0;whiteSpace=wrap;html=1;fontSize=11;" vertex="1" parent="z3x4-ySEqFO63D4qRMX3-1">
          <mxGeometry x="1175" y="760" width="80" height="24" as="geometry" />
        </mxCell>
        <mxCell id="z3x4-ySEqFO63D4qRMX3-169" value="2" style="rounded=0;whiteSpace=wrap;html=1;fontSize=11;" vertex="1" parent="z3x4-ySEqFO63D4qRMX3-1">
          <mxGeometry x="1175" y="808" width="80" height="24" as="geometry" />
        </mxCell>
        <mxCell id="z3x4-ySEqFO63D4qRMX3-170" value="11" style="rounded=0;whiteSpace=wrap;html=1;fontSize=11;" vertex="1" parent="z3x4-ySEqFO63D4qRMX3-1">
          <mxGeometry x="1175" y="784" width="80" height="24" as="geometry" />
        </mxCell>
      </root>
    </mxGraphModel>
  </diagram>
  <diagram id="07ICwvWxTUu3JNqLdwl2" name="05 - k">
    <mxGraphModel dx="683" dy="421" grid="1" gridSize="10" guides="1" tooltips="1" connect="1" arrows="1" fold="1" page="1" pageScale="1" pageWidth="1920" pageHeight="1200" math="0" shadow="0">
      <root>
        <mxCell id="7rzarvytqDZ3ERSPXm-5-0" />
        <mxCell id="7rzarvytqDZ3ERSPXm-5-1" parent="7rzarvytqDZ3ERSPXm-5-0" />
        <mxCell id="7rzarvytqDZ3ERSPXm-5-16" style="edgeStyle=orthogonalEdgeStyle;rounded=0;orthogonalLoop=1;jettySize=auto;html=1;exitX=1;exitY=0.5;exitDx=0;exitDy=0;fontSize=15;" edge="1" parent="7rzarvytqDZ3ERSPXm-5-1" source="7rzarvytqDZ3ERSPXm-5-2" target="7rzarvytqDZ3ERSPXm-5-10">
          <mxGeometry relative="1" as="geometry" />
        </mxCell>
        <mxCell id="7rzarvytqDZ3ERSPXm-5-2" value="UNION" style="rounded=0;whiteSpace=wrap;html=1;fontSize=15;align=center;fillColor=#dae8fc;strokeColor=#6c8ebf;fontStyle=1" vertex="1" parent="7rzarvytqDZ3ERSPXm-5-1">
          <mxGeometry x="570" y="300" width="132" height="50" as="geometry" />
        </mxCell>
        <mxCell id="7rzarvytqDZ3ERSPXm-5-17" style="edgeStyle=orthogonalEdgeStyle;rounded=0;orthogonalLoop=1;jettySize=auto;html=1;exitX=1;exitY=0.5;exitDx=0;exitDy=0;fontSize=15;" edge="1" parent="7rzarvytqDZ3ERSPXm-5-1" source="7rzarvytqDZ3ERSPXm-5-5" target="7rzarvytqDZ3ERSPXm-5-11">
          <mxGeometry relative="1" as="geometry" />
        </mxCell>
        <mxCell id="7rzarvytqDZ3ERSPXm-5-5" value="UNION ALL" style="rounded=0;whiteSpace=wrap;html=1;fontSize=15;align=center;fillColor=#dae8fc;strokeColor=#6c8ebf;fontStyle=1" vertex="1" parent="7rzarvytqDZ3ERSPXm-5-1">
          <mxGeometry x="570" y="360" width="132" height="50" as="geometry" />
        </mxCell>
        <mxCell id="7rzarvytqDZ3ERSPXm-5-18" style="edgeStyle=orthogonalEdgeStyle;rounded=0;orthogonalLoop=1;jettySize=auto;html=1;exitX=1;exitY=0.5;exitDx=0;exitDy=0;fontSize=15;" edge="1" parent="7rzarvytqDZ3ERSPXm-5-1" source="7rzarvytqDZ3ERSPXm-5-6" target="7rzarvytqDZ3ERSPXm-5-12">
          <mxGeometry relative="1" as="geometry" />
        </mxCell>
        <mxCell id="7rzarvytqDZ3ERSPXm-5-6" value="INTERSECT" style="rounded=0;whiteSpace=wrap;html=1;fontSize=15;align=center;fillColor=#dae8fc;strokeColor=#6c8ebf;fontStyle=1" vertex="1" parent="7rzarvytqDZ3ERSPXm-5-1">
          <mxGeometry x="570" y="420" width="132" height="50" as="geometry" />
        </mxCell>
        <mxCell id="7rzarvytqDZ3ERSPXm-5-19" style="edgeStyle=orthogonalEdgeStyle;rounded=0;orthogonalLoop=1;jettySize=auto;html=1;exitX=1;exitY=0.5;exitDx=0;exitDy=0;fontSize=15;" edge="1" parent="7rzarvytqDZ3ERSPXm-5-1" source="7rzarvytqDZ3ERSPXm-5-7" target="7rzarvytqDZ3ERSPXm-5-13">
          <mxGeometry relative="1" as="geometry" />
        </mxCell>
        <mxCell id="7rzarvytqDZ3ERSPXm-5-7" value="INTERSECT ALL" style="rounded=0;whiteSpace=wrap;html=1;fontSize=15;align=center;fillColor=#dae8fc;strokeColor=#6c8ebf;fontStyle=1" vertex="1" parent="7rzarvytqDZ3ERSPXm-5-1">
          <mxGeometry x="570" y="480" width="132" height="50" as="geometry" />
        </mxCell>
        <mxCell id="7rzarvytqDZ3ERSPXm-5-20" style="edgeStyle=orthogonalEdgeStyle;rounded=0;orthogonalLoop=1;jettySize=auto;html=1;exitX=1;exitY=0.5;exitDx=0;exitDy=0;fontSize=15;" edge="1" parent="7rzarvytqDZ3ERSPXm-5-1" source="7rzarvytqDZ3ERSPXm-5-8" target="7rzarvytqDZ3ERSPXm-5-14">
          <mxGeometry relative="1" as="geometry" />
        </mxCell>
        <mxCell id="7rzarvytqDZ3ERSPXm-5-8" value="EXCEPT" style="rounded=0;whiteSpace=wrap;html=1;fontSize=15;align=center;fillColor=#dae8fc;strokeColor=#6c8ebf;fontStyle=1" vertex="1" parent="7rzarvytqDZ3ERSPXm-5-1">
          <mxGeometry x="570" y="540" width="132" height="50" as="geometry" />
        </mxCell>
        <mxCell id="7rzarvytqDZ3ERSPXm-5-21" style="edgeStyle=orthogonalEdgeStyle;rounded=0;orthogonalLoop=1;jettySize=auto;html=1;exitX=1;exitY=0.5;exitDx=0;exitDy=0;fontSize=15;" edge="1" parent="7rzarvytqDZ3ERSPXm-5-1" source="7rzarvytqDZ3ERSPXm-5-9" target="7rzarvytqDZ3ERSPXm-5-15">
          <mxGeometry relative="1" as="geometry" />
        </mxCell>
        <mxCell id="7rzarvytqDZ3ERSPXm-5-9" value="EXCEPT ALL" style="rounded=0;whiteSpace=wrap;html=1;fontSize=15;align=center;fillColor=#dae8fc;strokeColor=#6c8ebf;fontStyle=1" vertex="1" parent="7rzarvytqDZ3ERSPXm-5-1">
          <mxGeometry x="570" y="600" width="132" height="50" as="geometry" />
        </mxCell>
        <mxCell id="7rzarvytqDZ3ERSPXm-5-10" value="Join together the results of two queries &lt;i&gt;and remove duplicate rows&lt;/i&gt;" style="rounded=0;whiteSpace=wrap;html=1;fontSize=15;align=center;fontStyle=0" vertex="1" parent="7rzarvytqDZ3ERSPXm-5-1">
          <mxGeometry x="730" y="300" width="300" height="50" as="geometry" />
        </mxCell>
        <mxCell id="7rzarvytqDZ3ERSPXm-5-11" value="Join together results of two queries" style="rounded=0;whiteSpace=wrap;html=1;fontSize=15;align=center;fontStyle=0" vertex="1" parent="7rzarvytqDZ3ERSPXm-5-1">
          <mxGeometry x="730" y="360" width="300" height="50" as="geometry" />
        </mxCell>
        <mxCell id="7rzarvytqDZ3ERSPXm-5-12" value="Find the rows common in the results of two queries. Remove duplicates" style="rounded=0;whiteSpace=wrap;html=1;fontSize=15;align=center;fontStyle=0" vertex="1" parent="7rzarvytqDZ3ERSPXm-5-1">
          <mxGeometry x="730" y="420" width="300" height="50" as="geometry" />
        </mxCell>
        <mxCell id="7rzarvytqDZ3ERSPXm-5-13" value="Find the rows common in the results of two queries" style="rounded=0;whiteSpace=wrap;html=1;fontSize=15;align=center;fontStyle=0" vertex="1" parent="7rzarvytqDZ3ERSPXm-5-1">
          <mxGeometry x="730" y="480" width="300" height="50" as="geometry" />
        </mxCell>
        <mxCell id="7rzarvytqDZ3ERSPXm-5-14" value="Find the rows that are present in first query but &lt;i&gt;not&lt;/i&gt;&amp;nbsp;second query. Remove duplicates" style="rounded=0;whiteSpace=wrap;html=1;fontSize=15;align=center;fontStyle=0" vertex="1" parent="7rzarvytqDZ3ERSPXm-5-1">
          <mxGeometry x="730" y="540" width="300" height="50" as="geometry" />
        </mxCell>
        <mxCell id="7rzarvytqDZ3ERSPXm-5-15" value="Find the rows that are present in first query but&amp;nbsp;&lt;i&gt;not&lt;/i&gt;&amp;nbsp;second query.&amp;nbsp;" style="rounded=0;whiteSpace=wrap;html=1;fontSize=15;align=center;fontStyle=0" vertex="1" parent="7rzarvytqDZ3ERSPXm-5-1">
          <mxGeometry x="730" y="600" width="300" height="50" as="geometry" />
        </mxCell>
      </root>
    </mxGraphModel>
  </diagram>
  <diagram name="05 - except" id="v2MiF-6HDw-bedxQeO7M">
    <mxGraphModel dx="733" dy="452" grid="1" gridSize="10" guides="1" tooltips="1" connect="1" arrows="1" fold="1" page="1" pageScale="1" pageWidth="1920" pageHeight="1200" math="0" shadow="0">
      <root>
        <mxCell id="88NqKRyNQAoIZpIJjKMf-0" />
        <mxCell id="88NqKRyNQAoIZpIJjKMf-1" parent="88NqKRyNQAoIZpIJjKMf-0" />
        <mxCell id="88NqKRyNQAoIZpIJjKMf-2" value="Database" style="rounded=0;whiteSpace=wrap;html=1;fillColor=#d5e8d4;strokeColor=#82b366;fontStyle=1;fontSize=18;" vertex="1" parent="88NqKRyNQAoIZpIJjKMf-1">
          <mxGeometry x="580" y="300" width="610" height="30" as="geometry" />
        </mxCell>
        <mxCell id="88NqKRyNQAoIZpIJjKMf-3" value="" style="rounded=0;whiteSpace=wrap;html=1;fontSize=18;fillColor=#d5e8d4;strokeColor=#82b366;" vertex="1" parent="88NqKRyNQAoIZpIJjKMf-1">
          <mxGeometry x="580" y="330" width="610" height="230" as="geometry" />
        </mxCell>
        <mxCell id="88NqKRyNQAoIZpIJjKMf-45" value="&lt;div style=&quot;font-size: 12px&quot;&gt;&lt;b style=&quot;font-size: 12px&quot;&gt;&lt;span style=&quot;font-size: 12px&quot;&gt;&#x9;&lt;/span&gt;SELECT &lt;/b&gt;&lt;span style=&quot;font-size: 12px&quot;&gt;id, name&lt;/span&gt;&lt;/div&gt;&lt;div style=&quot;font-size: 12px&quot;&gt;&lt;b style=&quot;font-size: 12px&quot;&gt;FROM &lt;/b&gt;products&lt;/div&gt;&lt;div style=&quot;font-size: 12px&quot;&gt;&lt;b style=&quot;font-size: 12px&quot;&gt;ORDER BY &lt;/b&gt;price&lt;b style=&quot;font-size: 12px&quot;&gt; DESC&lt;/b&gt;&lt;/div&gt;&lt;div style=&quot;font-size: 12px&quot;&gt;&lt;b style=&quot;font-size: 12px&quot;&gt;LIMIT &lt;/b&gt;4&lt;/div&gt;" style="rounded=0;whiteSpace=wrap;html=1;fontSize=12;fillColor=#dae8fc;strokeColor=#6c8ebf;align=left;spacingLeft=15;" vertex="1" parent="88NqKRyNQAoIZpIJjKMf-1">
          <mxGeometry x="590" y="340" width="220" height="68" as="geometry" />
        </mxCell>
        <mxCell id="88NqKRyNQAoIZpIJjKMf-79" value="&lt;div style=&quot;font-size: 12px&quot;&gt;&lt;div&gt;&lt;b&gt;SELECT&lt;/b&gt;&amp;nbsp;id, name&lt;/div&gt;&lt;div&gt;&lt;b&gt;FROM&lt;/b&gt; products&lt;/div&gt;&lt;div&gt;&lt;b&gt;ORDER BY&lt;/b&gt; price / weight &lt;b&gt;DESC&lt;/b&gt;&lt;/div&gt;&lt;div&gt;&lt;b&gt;LIMIT&lt;/b&gt;&amp;nbsp;4&lt;/div&gt;&lt;/div&gt;" style="rounded=0;whiteSpace=wrap;html=1;fontSize=12;fillColor=#dae8fc;strokeColor=#6c8ebf;align=left;spacingLeft=15;" vertex="1" parent="88NqKRyNQAoIZpIJjKMf-1">
          <mxGeometry x="960" y="340" width="220" height="68" as="geometry" />
        </mxCell>
        <mxCell id="88NqKRyNQAoIZpIJjKMf-81" value="EXCEPT" style="rounded=0;whiteSpace=wrap;html=1;fontSize=18;align=center;fillColor=#fff2cc;strokeColor=#d6b656;fontStyle=1" vertex="1" parent="88NqKRyNQAoIZpIJjKMf-1">
          <mxGeometry x="825" y="340" width="120" height="60" as="geometry" />
        </mxCell>
        <mxCell id="IQRkDMqfOIRQrxdGjyxX-0" value="id" style="rounded=0;whiteSpace=wrap;html=1;fontSize=12;fillColor=#f5f5f5;strokeColor=#666666;fontColor=#333333;fontStyle=2" vertex="1" parent="88NqKRyNQAoIZpIJjKMf-1">
          <mxGeometry x="635" y="414" width="50" height="24" as="geometry" />
        </mxCell>
        <mxCell id="IQRkDMqfOIRQrxdGjyxX-1" value="name" style="rounded=0;whiteSpace=wrap;html=1;fontSize=12;fillColor=#f5f5f5;strokeColor=#666666;fontColor=#333333;fontStyle=2" vertex="1" parent="88NqKRyNQAoIZpIJjKMf-1">
          <mxGeometry x="685" y="414" width="80" height="24" as="geometry" />
        </mxCell>
        <mxCell id="IQRkDMqfOIRQrxdGjyxX-2" value="1" style="rounded=0;whiteSpace=wrap;html=1;fontSize=11;" vertex="1" parent="88NqKRyNQAoIZpIJjKMf-1">
          <mxGeometry x="635" y="438" width="50" height="24" as="geometry" />
        </mxCell>
        <mxCell id="IQRkDMqfOIRQrxdGjyxX-3" value="Shirt" style="rounded=0;whiteSpace=wrap;html=1;fontSize=11;" vertex="1" parent="88NqKRyNQAoIZpIJjKMf-1">
          <mxGeometry x="685" y="438" width="80" height="24" as="geometry" />
        </mxCell>
        <mxCell id="IQRkDMqfOIRQrxdGjyxX-6" value="3" style="rounded=0;whiteSpace=wrap;html=1;fontSize=11;" vertex="1" parent="88NqKRyNQAoIZpIJjKMf-1">
          <mxGeometry x="635" y="462" width="50" height="24" as="geometry" />
        </mxCell>
        <mxCell id="IQRkDMqfOIRQrxdGjyxX-7" value="Bacon" style="rounded=0;whiteSpace=wrap;html=1;fontSize=11;" vertex="1" parent="88NqKRyNQAoIZpIJjKMf-1">
          <mxGeometry x="685" y="462" width="80" height="24" as="geometry" />
        </mxCell>
        <mxCell id="IQRkDMqfOIRQrxdGjyxX-10" value="id" style="rounded=0;whiteSpace=wrap;html=1;fontSize=12;fillColor=#f5f5f5;strokeColor=#666666;fontColor=#333333;fontStyle=2" vertex="1" parent="88NqKRyNQAoIZpIJjKMf-1">
          <mxGeometry x="1005" y="414" width="50" height="24" as="geometry" />
        </mxCell>
        <mxCell id="IQRkDMqfOIRQrxdGjyxX-11" value="name" style="rounded=0;whiteSpace=wrap;html=1;fontSize=12;fillColor=#f5f5f5;strokeColor=#666666;fontColor=#333333;fontStyle=2" vertex="1" parent="88NqKRyNQAoIZpIJjKMf-1">
          <mxGeometry x="1055" y="414" width="80" height="24" as="geometry" />
        </mxCell>
        <mxCell id="IQRkDMqfOIRQrxdGjyxX-14" value="2" style="rounded=0;whiteSpace=wrap;html=1;fontSize=11;" vertex="1" parent="88NqKRyNQAoIZpIJjKMf-1">
          <mxGeometry x="1005" y="438" width="50" height="24" as="geometry" />
        </mxCell>
        <mxCell id="IQRkDMqfOIRQrxdGjyxX-15" value="Towels" style="rounded=0;whiteSpace=wrap;html=1;fontSize=11;" vertex="1" parent="88NqKRyNQAoIZpIJjKMf-1">
          <mxGeometry x="1055" y="438" width="80" height="24" as="geometry" />
        </mxCell>
        <mxCell id="IQRkDMqfOIRQrxdGjyxX-18" value="4" style="rounded=0;whiteSpace=wrap;html=1;fontSize=11;" vertex="1" parent="88NqKRyNQAoIZpIJjKMf-1">
          <mxGeometry x="1005" y="462" width="50" height="24" as="geometry" />
        </mxCell>
        <mxCell id="IQRkDMqfOIRQrxdGjyxX-19" value="Ball" style="rounded=0;whiteSpace=wrap;html=1;fontSize=11;" vertex="1" parent="88NqKRyNQAoIZpIJjKMf-1">
          <mxGeometry x="1055" y="462" width="80" height="24" as="geometry" />
        </mxCell>
        <mxCell id="IQRkDMqfOIRQrxdGjyxX-20" value="5" style="rounded=0;whiteSpace=wrap;html=1;fontSize=11;" vertex="1" parent="88NqKRyNQAoIZpIJjKMf-1">
          <mxGeometry x="1005" y="486" width="50" height="24" as="geometry" />
        </mxCell>
        <mxCell id="IQRkDMqfOIRQrxdGjyxX-21" value="Fish" style="rounded=0;whiteSpace=wrap;html=1;fontSize=11;" vertex="1" parent="88NqKRyNQAoIZpIJjKMf-1">
          <mxGeometry x="1055" y="486" width="80" height="24" as="geometry" />
        </mxCell>
        <mxCell id="IQRkDMqfOIRQrxdGjyxX-22" value="6" style="rounded=0;whiteSpace=wrap;html=1;fontSize=11;" vertex="1" parent="88NqKRyNQAoIZpIJjKMf-1">
          <mxGeometry x="1005" y="510" width="50" height="24" as="geometry" />
        </mxCell>
        <mxCell id="IQRkDMqfOIRQrxdGjyxX-23" value="Mouse" style="rounded=0;whiteSpace=wrap;html=1;fontSize=11;" vertex="1" parent="88NqKRyNQAoIZpIJjKMf-1">
          <mxGeometry x="1055" y="510" width="80" height="24" as="geometry" />
        </mxCell>
      </root>
    </mxGraphModel>
  </diagram>
  <diagram name="06 - except" id="liM4nE8odu4bTikE6rm0">
    <mxGraphModel dx="733" dy="452" grid="1" gridSize="10" guides="1" tooltips="1" connect="1" arrows="1" fold="1" page="1" pageScale="1" pageWidth="1920" pageHeight="1200" math="0" shadow="0">
      <root>
        <mxCell id="P4-vpd5ePVPSfBDAL0WF-0" />
        <mxCell id="P4-vpd5ePVPSfBDAL0WF-1" parent="P4-vpd5ePVPSfBDAL0WF-0" />
        <mxCell id="P4-vpd5ePVPSfBDAL0WF-2" value="Database" style="rounded=0;whiteSpace=wrap;html=1;fillColor=#d5e8d4;strokeColor=#82b366;fontStyle=1;fontSize=18;" vertex="1" parent="P4-vpd5ePVPSfBDAL0WF-1">
          <mxGeometry x="580" y="300" width="610" height="30" as="geometry" />
        </mxCell>
        <mxCell id="P4-vpd5ePVPSfBDAL0WF-3" value="" style="rounded=0;whiteSpace=wrap;html=1;fontSize=18;fillColor=#d5e8d4;strokeColor=#82b366;" vertex="1" parent="P4-vpd5ePVPSfBDAL0WF-1">
          <mxGeometry x="580" y="330" width="610" height="230" as="geometry" />
        </mxCell>
        <mxCell id="P4-vpd5ePVPSfBDAL0WF-4" value="&lt;div style=&quot;font-size: 12px&quot;&gt;&lt;b style=&quot;font-size: 12px&quot;&gt;&lt;span style=&quot;font-size: 12px&quot;&gt;&#x9;&lt;/span&gt;SELECT &lt;/b&gt;&lt;span style=&quot;font-size: 12px&quot;&gt;id, name&lt;/span&gt;&lt;/div&gt;&lt;div style=&quot;font-size: 12px&quot;&gt;&lt;b style=&quot;font-size: 12px&quot;&gt;FROM &lt;/b&gt;products&lt;/div&gt;&lt;div style=&quot;font-size: 12px&quot;&gt;&lt;b style=&quot;font-size: 12px&quot;&gt;ORDER BY &lt;/b&gt;price&lt;b style=&quot;font-size: 12px&quot;&gt; DESC&lt;/b&gt;&lt;/div&gt;&lt;div style=&quot;font-size: 12px&quot;&gt;&lt;b style=&quot;font-size: 12px&quot;&gt;LIMIT &lt;/b&gt;4&lt;/div&gt;" style="rounded=0;whiteSpace=wrap;html=1;fontSize=12;fillColor=#dae8fc;strokeColor=#6c8ebf;align=left;spacingLeft=15;" vertex="1" parent="P4-vpd5ePVPSfBDAL0WF-1">
          <mxGeometry x="960" y="340" width="220" height="68" as="geometry" />
        </mxCell>
        <mxCell id="P4-vpd5ePVPSfBDAL0WF-5" value="&lt;div style=&quot;font-size: 12px&quot;&gt;&lt;div&gt;&lt;b&gt;SELECT&lt;/b&gt;&amp;nbsp;id, name&lt;/div&gt;&lt;div&gt;&lt;b&gt;FROM&lt;/b&gt; products&lt;/div&gt;&lt;div&gt;&lt;b&gt;ORDER BY&lt;/b&gt; price / weight &lt;b&gt;DESC&lt;/b&gt;&lt;/div&gt;&lt;div&gt;&lt;b&gt;LIMIT&lt;/b&gt;&amp;nbsp;6&lt;/div&gt;&lt;/div&gt;" style="rounded=0;whiteSpace=wrap;html=1;fontSize=12;fillColor=#dae8fc;strokeColor=#6c8ebf;align=left;spacingLeft=15;" vertex="1" parent="P4-vpd5ePVPSfBDAL0WF-1">
          <mxGeometry x="590" y="340" width="220" height="68" as="geometry" />
        </mxCell>
        <mxCell id="P4-vpd5ePVPSfBDAL0WF-6" value="EXCEPT" style="rounded=0;whiteSpace=wrap;html=1;fontSize=18;align=center;fillColor=#fff2cc;strokeColor=#d6b656;fontStyle=1" vertex="1" parent="P4-vpd5ePVPSfBDAL0WF-1">
          <mxGeometry x="825" y="340" width="120" height="60" as="geometry" />
        </mxCell>
        <mxCell id="P4-vpd5ePVPSfBDAL0WF-7" value="id" style="rounded=0;whiteSpace=wrap;html=1;fontSize=12;fillColor=#f5f5f5;strokeColor=#666666;fontColor=#333333;fontStyle=2" vertex="1" parent="P4-vpd5ePVPSfBDAL0WF-1">
          <mxGeometry x="1005" y="414" width="50" height="24" as="geometry" />
        </mxCell>
        <mxCell id="P4-vpd5ePVPSfBDAL0WF-8" value="name" style="rounded=0;whiteSpace=wrap;html=1;fontSize=12;fillColor=#f5f5f5;strokeColor=#666666;fontColor=#333333;fontStyle=2" vertex="1" parent="P4-vpd5ePVPSfBDAL0WF-1">
          <mxGeometry x="1055" y="414" width="80" height="24" as="geometry" />
        </mxCell>
        <mxCell id="P4-vpd5ePVPSfBDAL0WF-9" value="1" style="rounded=0;whiteSpace=wrap;html=1;fontSize=11;" vertex="1" parent="P4-vpd5ePVPSfBDAL0WF-1">
          <mxGeometry x="1005" y="438" width="50" height="24" as="geometry" />
        </mxCell>
        <mxCell id="P4-vpd5ePVPSfBDAL0WF-10" value="Shirt" style="rounded=0;whiteSpace=wrap;html=1;fontSize=11;" vertex="1" parent="P4-vpd5ePVPSfBDAL0WF-1">
          <mxGeometry x="1055" y="438" width="80" height="24" as="geometry" />
        </mxCell>
        <mxCell id="P4-vpd5ePVPSfBDAL0WF-11" value="2" style="rounded=0;whiteSpace=wrap;html=1;fontSize=11;" vertex="1" parent="P4-vpd5ePVPSfBDAL0WF-1">
          <mxGeometry x="1005" y="462" width="50" height="24" as="geometry" />
        </mxCell>
        <mxCell id="P4-vpd5ePVPSfBDAL0WF-12" value="Towels" style="rounded=0;whiteSpace=wrap;html=1;fontSize=11;" vertex="1" parent="P4-vpd5ePVPSfBDAL0WF-1">
          <mxGeometry x="1055" y="462" width="80" height="24" as="geometry" />
        </mxCell>
        <mxCell id="P4-vpd5ePVPSfBDAL0WF-13" value="3" style="rounded=0;whiteSpace=wrap;html=1;fontSize=11;" vertex="1" parent="P4-vpd5ePVPSfBDAL0WF-1">
          <mxGeometry x="1005" y="486" width="50" height="24" as="geometry" />
        </mxCell>
        <mxCell id="P4-vpd5ePVPSfBDAL0WF-14" value="Bacon" style="rounded=0;whiteSpace=wrap;html=1;fontSize=11;" vertex="1" parent="P4-vpd5ePVPSfBDAL0WF-1">
          <mxGeometry x="1055" y="486" width="80" height="24" as="geometry" />
        </mxCell>
        <mxCell id="P4-vpd5ePVPSfBDAL0WF-15" value="4" style="rounded=0;whiteSpace=wrap;html=1;fontSize=11;" vertex="1" parent="P4-vpd5ePVPSfBDAL0WF-1">
          <mxGeometry x="1005" y="510" width="50" height="24" as="geometry" />
        </mxCell>
        <mxCell id="P4-vpd5ePVPSfBDAL0WF-16" value="Ball" style="rounded=0;whiteSpace=wrap;html=1;fontSize=11;" vertex="1" parent="P4-vpd5ePVPSfBDAL0WF-1">
          <mxGeometry x="1055" y="510" width="80" height="24" as="geometry" />
        </mxCell>
        <mxCell id="P4-vpd5ePVPSfBDAL0WF-17" value="id" style="rounded=0;whiteSpace=wrap;html=1;fontSize=12;fillColor=#f5f5f5;strokeColor=#666666;fontColor=#333333;fontStyle=2" vertex="1" parent="P4-vpd5ePVPSfBDAL0WF-1">
          <mxGeometry x="635" y="414" width="50" height="24" as="geometry" />
        </mxCell>
        <mxCell id="P4-vpd5ePVPSfBDAL0WF-18" value="name" style="rounded=0;whiteSpace=wrap;html=1;fontSize=12;fillColor=#f5f5f5;strokeColor=#666666;fontColor=#333333;fontStyle=2" vertex="1" parent="P4-vpd5ePVPSfBDAL0WF-1">
          <mxGeometry x="685" y="414" width="80" height="24" as="geometry" />
        </mxCell>
        <mxCell id="P4-vpd5ePVPSfBDAL0WF-23" value="5" style="rounded=0;whiteSpace=wrap;html=1;fontSize=11;" vertex="1" parent="P4-vpd5ePVPSfBDAL0WF-1">
          <mxGeometry x="635" y="438" width="50" height="24" as="geometry" />
        </mxCell>
        <mxCell id="P4-vpd5ePVPSfBDAL0WF-24" value="Fish" style="rounded=0;whiteSpace=wrap;html=1;fontSize=11;" vertex="1" parent="P4-vpd5ePVPSfBDAL0WF-1">
          <mxGeometry x="685" y="438" width="80" height="24" as="geometry" />
        </mxCell>
        <mxCell id="P4-vpd5ePVPSfBDAL0WF-25" value="6" style="rounded=0;whiteSpace=wrap;html=1;fontSize=11;" vertex="1" parent="P4-vpd5ePVPSfBDAL0WF-1">
          <mxGeometry x="635" y="462" width="50" height="24" as="geometry" />
        </mxCell>
        <mxCell id="P4-vpd5ePVPSfBDAL0WF-26" value="Mouse" style="rounded=0;whiteSpace=wrap;html=1;fontSize=11;" vertex="1" parent="P4-vpd5ePVPSfBDAL0WF-1">
          <mxGeometry x="685" y="462" width="80" height="24" as="geometry" />
        </mxCell>
        <mxCell id="P4-vpd5ePVPSfBDAL0WF-28" style="edgeStyle=orthogonalEdgeStyle;rounded=0;orthogonalLoop=1;jettySize=auto;html=1;exitX=1;exitY=0.5;exitDx=0;exitDy=0;fontSize=18;" edge="1" parent="P4-vpd5ePVPSfBDAL0WF-1" source="P4-vpd5ePVPSfBDAL0WF-27" target="P4-vpd5ePVPSfBDAL0WF-4">
          <mxGeometry relative="1" as="geometry" />
        </mxCell>
        <mxCell id="P4-vpd5ePVPSfBDAL0WF-29" style="edgeStyle=orthogonalEdgeStyle;rounded=0;orthogonalLoop=1;jettySize=auto;html=1;exitX=0;exitY=0.5;exitDx=0;exitDy=0;fontSize=18;" edge="1" parent="P4-vpd5ePVPSfBDAL0WF-1" source="P4-vpd5ePVPSfBDAL0WF-27" target="P4-vpd5ePVPSfBDAL0WF-5">
          <mxGeometry relative="1" as="geometry" />
        </mxCell>
        <mxCell id="P4-vpd5ePVPSfBDAL0WF-27" value="Changing query order changes results!" style="rounded=0;whiteSpace=wrap;html=1;fontSize=18;align=center;fillColor=#f8cecc;strokeColor=#b85450;fontStyle=4" vertex="1" parent="P4-vpd5ePVPSfBDAL0WF-1">
          <mxGeometry x="762.5" y="230" width="245" height="60" as="geometry" />
        </mxCell>
      </root>
    </mxGraphModel>
  </diagram>
  <diagram id="OlBFzQ62Q17TwB_6tktT" name="Page-8">
    <mxGraphModel grid="1" page="1" gridSize="10" guides="1" tooltips="1" connect="1" arrows="1" fold="1" pageScale="1" pageWidth="827" pageHeight="1169" math="0" shadow="0">
      <root>
        <mxCell id="0" />
        <mxCell id="1" parent="0" />
      </root>
    </mxGraphModel>
  </diagram>
</mxfile>
